<?xml version="1.0" encoding="UTF-8"?>
<svg class="back-svg" xmlns="http://www.w3.org/2000/svg" viewBox="0 0 135.43 155.02">
  <g id="posters">
    <g>
      <rect x="124.85" y="80.11" width="9.42" height="7.88" transform="translate(-11.87 146.09) rotate(-56.66)"/>
      <rect x="113.09" y="83.65" width="9.42" height="7.88" transform="translate(-20.12 137.86) rotate(-56.66)"/>
      <rect x="118.26" y="75.78" width="9.42" height="7.88" transform="translate(-11.21 138.64) rotate(-56.66)"/>
      <rect x="101.33" y="87.18" width="9.42" height="7.88" transform="translate(-28.37 129.63) rotate(-56.66)"/>
      <rect x="106.51" y="79.32" width="9.42" height="7.88" transform="translate(-19.46 130.41) rotate(-56.66)"/>
      <rect x="111.68" y="71.45" width="9.42" height="7.88" transform="translate(-10.56 131.19) rotate(-56.66)"/>
      <rect x="89.57" y="90.72" width="9.42" height="7.88" transform="translate(-36.61 121.4) rotate(-56.66)"/>
      <rect x="94.75" y="82.85" width="9.42" height="7.88" transform="translate(-27.71 122.18) rotate(-56.66)"/>
      <rect x="99.92" y="74.99" width="9.42" height="7.88" transform="translate(-18.81 122.96) rotate(-56.66)"/>
      <rect x="105.1" y="67.12" width="9.42" height="7.88" transform="translate(-9.91 123.74) rotate(-56.66)"/>
      <rect x="77.82" y="94.25" width="9.42" height="7.88" transform="translate(-44.86 113.17) rotate(-56.66)"/>
      <rect x="82.99" y="86.39" width="9.42" height="7.88" transform="translate(-35.96 113.95) rotate(-56.66)"/>
      <rect x="88.16" y="78.52" width="9.42" height="7.88" transform="translate(-27.06 114.73) rotate(-56.66)"/>
      <rect x="93.34" y="70.66" width="9.42" height="7.88" transform="translate(-18.16 115.51) rotate(-56.66)"/>
      <rect x="98.51" y="62.79" width="9.42" height="7.88" transform="translate(-9.26 116.29) rotate(-56.66)"/>
      <rect x="35.01" y="144.98" width="9.42" height="7.88" transform="translate(-106.53 100.26) rotate(-56.66)"/>
      <rect x="40.19" y="137.12" width="9.42" height="7.88" transform="translate(-97.62 101.04) rotate(-56.66)"/>
      <rect x="45.36" y="129.25" width="9.42" height="7.88" transform="translate(-88.72 101.82) rotate(-56.66)"/>
      <rect x="50.53" y="121.39" width="9.42" height="7.88" transform="translate(-79.82 102.6) rotate(-56.66)"/>
      <rect x="55.71" y="113.52" width="9.42" height="7.88" transform="translate(-70.92 103.38) rotate(-56.66)"/>
      <rect x="60.88" y="105.65" width="9.42" height="7.88" transform="translate(-62.02 104.16) rotate(-56.66)"/>
      <rect x="66.06" y="97.79" width="9.42" height="7.88" transform="translate(-53.11 104.94) rotate(-56.66)"/>
      <rect x="71.23" y="89.92" width="9.42" height="7.88" transform="translate(-44.21 105.72) rotate(-56.66)"/>
      <rect x="76.41" y="82.06" width="9.42" height="7.88" transform="translate(-35.31 106.5) rotate(-56.66)"/>
      <rect x="81.58" y="74.19" width="9.42" height="7.88" transform="translate(-26.41 107.28) rotate(-56.66)"/>
      <rect x="86.76" y="66.32" width="9.42" height="7.88" transform="translate(-17.5 108.06) rotate(-56.66)"/>
      <rect x="91.93" y="58.46" width="9.42" height="7.88" transform="translate(-8.6 108.84) rotate(-56.66)"/>
      <rect x="28.43" y="140.65" width="9.42" height="7.88" transform="translate(-105.87 92.81) rotate(-56.66)"/>
      <rect x="33.6" y="132.79" width="9.42" height="7.88" transform="translate(-96.97 93.59) rotate(-56.66)"/>
      <rect x="38.78" y="124.92" width="9.42" height="7.88" transform="translate(-88.07 94.37) rotate(-56.66)"/>
      <rect x="43.95" y="117.05" width="9.42" height="7.88" transform="translate(-79.17 95.15) rotate(-56.66)"/>
      <rect x="49.13" y="109.19" width="9.42" height="7.88" transform="translate(-70.27 95.93) rotate(-56.66)"/>
      <rect x="54.3" y="101.32" width="9.42" height="7.88" transform="translate(-61.36 96.71) rotate(-56.66)"/>
      <rect x="59.47" y="93.46" width="9.42" height="7.88" transform="translate(-52.46 97.49) rotate(-56.66)"/>
      <rect x="64.65" y="85.59" width="9.42" height="7.88" transform="translate(-43.56 98.27) rotate(-56.66)"/>
      <rect x="69.82" y="77.73" width="9.42" height="7.88" transform="translate(-34.66 99.05) rotate(-56.66)"/>
      <rect x="75" y="69.86" width="9.42" height="7.88" transform="translate(-25.75 99.83) rotate(-56.66)"/>
      <rect x="80.17" y="61.99" width="9.42" height="7.88" transform="translate(-16.85 100.61) rotate(-56.66)"/>
      <rect x="85.35" y="54.13" width="9.42" height="7.88" transform="translate(-7.95 101.39) rotate(-56.66)"/>
      <rect x="32.19" y="120.59" width="9.42" height="7.88" transform="translate(-87.42 86.92) rotate(-56.66)"/>
      <rect x="37.37" y="112.72" width="9.42" height="7.88" transform="translate(-78.51 87.7) rotate(-56.66)"/>
      <rect x="42.54" y="104.86" width="9.42" height="7.88" transform="translate(-69.61 88.48) rotate(-56.66)"/>
      <rect x="47.72" y="96.99" width="9.42" height="7.88" transform="translate(-60.71 89.26) rotate(-56.66)"/>
      <rect x="52.89" y="89.13" width="9.42" height="7.88" transform="translate(-51.81 90.04) rotate(-56.66)"/>
      <rect x="58.07" y="81.26" width="9.42" height="7.88" transform="translate(-42.91 90.82) rotate(-56.66)"/>
      <rect x="63.24" y="73.39" width="9.42" height="7.88" transform="translate(-34 91.6) rotate(-56.66)"/>
      <rect x="68.41" y="65.53" width="9.42" height="7.88" transform="translate(-25.1 92.38) rotate(-56.66)"/>
      <rect x="73.59" y="57.66" width="9.42" height="7.88" transform="translate(-16.2 93.16) rotate(-56.66)"/>
      <rect x="78.76" y="49.8" width="9.42" height="7.88" transform="translate(-7.3 93.94) rotate(-56.66)"/>
      <rect x="25.61" y="116.26" width="9.42" height="7.88" transform="translate(-86.76 79.47) rotate(-56.66)"/>
      <rect x="30.78" y="108.39" width="9.42" height="7.88" transform="translate(-77.86 80.25) rotate(-56.66)"/>
      <rect x="35.96" y="100.53" width="9.42" height="7.88" transform="translate(-68.96 81.03) rotate(-56.66)"/>
      <rect x="41.13" y="92.66" width="9.42" height="7.88" transform="translate(-60.06 81.81) rotate(-56.66)"/>
      <rect x="46.31" y="84.8" width="9.42" height="7.88" transform="translate(-51.16 82.59) rotate(-56.66)"/>
      <rect x="51.48" y="76.93" width="9.42" height="7.88" transform="translate(-42.25 83.37) rotate(-56.66)"/>
      <rect x="56.66" y="69.06" width="9.42" height="7.88" transform="translate(-33.35 84.15) rotate(-56.66)"/>
      <rect x="61.83" y="61.2" width="9.42" height="7.88" transform="translate(-24.45 84.93) rotate(-56.66)"/>
      <rect x="67.01" y="53.33" width="9.42" height="7.88" transform="translate(-15.55 85.71) rotate(-56.66)"/>
      <rect x="72.18" y="45.47" width="9.42" height="7.88" transform="translate(-6.64 86.49) rotate(-56.66)"/>
      <rect x="24.2" y="104.06" width="9.42" height="7.88" transform="translate(-77.21 72.8) rotate(-56.66)"/>
      <rect x="29.38" y="96.2" width="9.42" height="7.88" transform="translate(-68.31 73.58) rotate(-56.66)"/>
      <rect x="34.55" y="88.33" width="9.42" height="7.88" transform="translate(-59.4 74.36) rotate(-56.66)"/>
      <rect x="39.72" y="80.46" width="9.42" height="7.88" transform="translate(-50.5 75.14) rotate(-56.66)"/>
      <rect x="44.9" y="72.6" width="9.42" height="7.88" transform="translate(-41.6 75.92) rotate(-56.66)"/>
      <rect x="50.07" y="64.73" width="9.42" height="7.88" transform="translate(-32.7 76.7) rotate(-56.66)"/>
      <rect x="55.25" y="56.87" width="9.42" height="7.88" transform="translate(-23.8 77.48) rotate(-56.66)"/>
      <rect x="60.42" y="49" width="9.42" height="7.88" transform="translate(-14.89 78.26) rotate(-56.66)"/>
      <rect x="65.6" y="41.14" width="9.42" height="7.88" transform="translate(-5.99 79.04) rotate(-56.66)"/>
      <rect x="17.62" y="99.73" width="9.42" height="7.88" transform="translate(-76.56 65.35) rotate(-56.66)"/>
      <rect x="22.79" y="91.87" width="9.42" height="7.88" transform="translate(-67.65 66.13) rotate(-56.66)"/>
      <rect x="27.97" y="84" width="9.42" height="7.88" transform="translate(-58.75 66.91) rotate(-56.66)"/>
      <rect x="33.14" y="76.13" width="9.42" height="7.88" transform="translate(-49.85 67.69) rotate(-56.66)"/>
      <rect x="38.32" y="68.27" width="9.42" height="7.88" transform="translate(-40.95 68.47) rotate(-56.66)"/>
      <rect x="43.49" y="60.4" width="9.42" height="7.88" transform="translate(-32.05 69.25) rotate(-56.66)"/>
      <rect x="48.66" y="52.54" width="9.42" height="7.88" transform="translate(-23.14 70.03) rotate(-56.66)"/>
      <rect x="53.84" y="44.67" width="9.42" height="7.88" transform="translate(-14.24 70.81) rotate(-56.66)"/>
      <rect x="59.01" y="36.8" width="9.42" height="7.88" transform="translate(-5.34 71.59) rotate(-56.66)"/>
      <rect x="16.21" y="87.54" width="9.42" height="7.88" transform="translate(-67 58.68) rotate(-56.66)"/>
      <rect x="21.38" y="79.67" width="9.42" height="7.88" transform="translate(-58.1 59.46) rotate(-56.66)"/>
      <rect x="26.56" y="71.8" width="9.42" height="7.88" transform="translate(-49.2 60.24) rotate(-56.66)"/>
      <rect x="31.73" y="63.94" width="9.42" height="7.88" transform="translate(-40.29 61.02) rotate(-56.66)"/>
      <rect x="36.91" y="56.07" width="9.42" height="7.88" transform="translate(-31.39 61.8) rotate(-56.66)"/>
      <rect x="42.08" y="48.21" width="9.42" height="7.88" transform="translate(-22.49 62.58) rotate(-56.66)"/>
      <rect x="47.26" y="40.34" width="9.42" height="7.88" transform="translate(-13.59 63.36) rotate(-56.66)"/>
      <rect x="52.43" y="32.47" width="9.42" height="7.88" transform="translate(-4.69 64.14) rotate(-56.66)"/>
      <rect x="14.8" y="75.34" width="9.42" height="7.88" transform="translate(-57.45 52.01) rotate(-56.66)"/>
      <rect x="19.97" y="67.47" width="9.42" height="7.88" transform="translate(-48.54 52.79) rotate(-56.66)"/>
      <rect x="25.15" y="59.61" width="9.42" height="7.88" transform="translate(-39.64 53.57) rotate(-56.66)"/>
      <rect x="30.32" y="51.74" width="9.42" height="7.88" transform="translate(-30.74 54.35) rotate(-56.66)"/>
      <rect x="35.5" y="43.87" width="9.42" height="7.88" transform="translate(-21.84 55.13) rotate(-56.66)"/>
      <rect x="40.67" y="36.01" width="9.42" height="7.88" transform="translate(-12.94 55.91) rotate(-56.66)"/>
      <rect x="45.85" y="28.14" width="9.42" height="7.88" transform="translate(-4.03 56.69) rotate(-56.66)"/>
      <rect x="13.39" y="63.14" width="9.42" height="7.88" transform="translate(-47.89 45.34) rotate(-56.66)"/>
      <rect x="18.57" y="55.28" width="9.42" height="7.88" transform="translate(-38.99 46.12) rotate(-56.66)"/>
      <rect x="23.74" y="47.41" width="9.42" height="7.88" transform="translate(-30.09 46.9) rotate(-56.66)"/>
      <rect x="28.91" y="39.54" width="9.42" height="7.88" transform="translate(-21.18 47.68) rotate(-56.66)"/>
      <rect x="34.09" y="31.68" width="9.42" height="7.88" transform="translate(-12.28 48.46) rotate(-56.66)"/>
      <rect x="39.26" y="23.81" width="9.42" height="7.88" transform="translate(-3.38 49.24) rotate(-56.66)"/>
      <rect x="11.98" y="50.95" width="9.42" height="7.88" transform="translate(-38.34 38.66) rotate(-56.66)"/>
      <rect x="17.16" y="43.08" width="9.42" height="7.88" transform="translate(-29.43 39.44) rotate(-56.66)"/>
      <rect x="22.33" y="35.21" width="9.42" height="7.88" transform="translate(-20.53 40.22) rotate(-56.66)"/>
      <rect x="27.51" y="27.35" width="9.42" height="7.88" transform="translate(-11.63 41) rotate(-56.66)"/>
      <rect x="32.68" y="19.48" width="9.42" height="7.88" transform="translate(-2.73 41.78) rotate(-56.66)"/>
      <rect x="10.57" y="38.75" width="9.42" height="7.88" transform="translate(-28.78 31.99) rotate(-56.66)"/>
      <rect x="15.75" y="30.88" width="9.42" height="7.88" transform="translate(-19.88 32.77) rotate(-56.66)"/>
      <rect x="20.92" y="23.02" width="9.42" height="7.88" transform="translate(-10.98 33.55) rotate(-56.66)"/>
      <rect x="26.1" y="15.15" width="9.42" height="7.88" transform="translate(-2.07 34.33) rotate(-56.66)"/>
      <rect x="3.99" y="34.42" width="9.42" height="7.88" transform="translate(-28.13 24.54) rotate(-56.66)"/>
      <rect x="9.16" y="26.55" width="9.42" height="7.88" transform="translate(-19.23 25.32) rotate(-56.66)"/>
      <rect x="14.34" y="18.69" width="9.42" height="7.88" transform="translate(-10.32 26.1) rotate(-56.66)"/>
      <rect x="19.51" y="10.82" width="9.42" height="7.88" transform="translate(-1.42 26.88) rotate(-56.66)"/>
      <rect x="2.58" y="22.22" width="9.42" height="7.88" transform="translate(-18.57 17.87) rotate(-56.66)"/>
      <rect x="7.75" y="14.35" width="9.42" height="7.88" transform="translate(-9.67 18.65) rotate(-56.66)"/>
      <rect x="12.93" y="6.49" width="9.42" height="7.88" transform="translate(-.77 19.43) rotate(-56.66)"/>
      <rect x="1.17" y="10.02" width="9.42" height="7.88" transform="translate(-9.02 11.2) rotate(-56.66)"/>
      <rect x="6.35" y="2.16" width="9.42" height="7.88" transform="translate(-.12 11.98) rotate(-56.66)"/>
      <line x1="5.17" y1="7.87" y2="15.73"/>
      <line x1="10.35" x2="5.17" y2="7.87"/>
    </g>
  </g>
</svg>