<?xml version="1.0" encoding="UTF-8"?>
<svg id="Layer_2" xmlns="http://www.w3.org/2000/svg" viewBox="0 0 112.58 136.84">
  <g id="posters">
    <g>
      <rect x="102.9" y="95.13" width="7.24" height="7.24" transform="translate(-14.46 179.13) rotate(-76.43)"/>
      <rect x="101.2" y="102.16" width="7.24" height="7.24" transform="translate(-22.6 182.86) rotate(-76.43)"/>
      <rect x="101.08" y="83.62" width="7.24" height="14.48" transform="translate(-8.19 171.32) rotate(-76.43)"/>
      <rect x="92.47" y="107.5" width="7.24" height="7.24" transform="translate(-34.47 178.46) rotate(-76.43)"/>
      <rect x="91.15" y="67.1" width="14.48" height="7.24" transform="translate(6.56 149.77) rotate(-76.43)"/>
      <rect x="95.74" y="74.89" width="7.24" height="14.48" transform="translate(-3.78 159.45) rotate(-76.43)"/>
      <rect x="83.73" y="112.84" width="7.24" height="7.24" transform="translate(-46.35 174.05) rotate(-76.43)"/>
      <rect x="90.28" y="54.85" width="7.24" height="7.24" transform="translate(15.03 136.03) rotate(-76.43)"/>
      <rect x="88.58" y="61.89" width="7.24" height="7.24" transform="translate(6.89 139.77) rotate(-76.43)"/>
      <rect x="86.88" y="68.92" width="7.24" height="7.24" transform="translate(-1.25 143.5) rotate(-76.43)"/>
      <rect x="75" y="118.18" width="7.24" height="7.24" transform="translate(-58.22 169.65) rotate(-76.43)"/>
      <rect x="84.94" y="46.12" width="7.24" height="7.24" transform="translate(19.44 124.16) rotate(-76.43)"/>
      <rect x="83.24" y="53.15" width="7.24" height="7.24" transform="translate(11.3 127.89) rotate(-76.43)"/>
      <rect x="81.54" y="60.19" width="7.24" height="7.24" transform="translate(3.16 131.63) rotate(-76.43)"/>
      <rect x="79.85" y="67.23" width="7.24" height="7.24" transform="translate(-4.98 135.36) rotate(-76.43)"/>
      <rect x="78.15" y="74.26" width="7.24" height="7.24" transform="translate(-13.12 139.1) rotate(-76.43)"/>
      <rect x="66.26" y="123.52" width="7.24" height="7.24" transform="translate(-70.1 165.25) rotate(-76.43)"/>
      <rect x="79.6" y="37.38" width="7.24" height="7.24" transform="translate(23.84 112.28) rotate(-76.43)"/>
      <rect x="77.9" y="44.42" width="7.24" height="7.24" transform="translate(15.7 116.02) rotate(-76.43)"/>
      <rect x="76.21" y="51.46" width="7.24" height="7.24" transform="translate(7.56 119.75) rotate(-76.43)"/>
      <rect x="74.51" y="58.49" width="7.24" height="7.24" transform="translate(-.58 123.49) rotate(-76.43)"/>
      <rect x="72.81" y="65.53" width="7.24" height="7.24" transform="translate(-8.72 127.22) rotate(-76.43)"/>
      <rect x="71.11" y="72.56" width="7.24" height="7.24" transform="translate(-16.86 130.96) rotate(-76.43)"/>
      <rect x="69.41" y="79.6" width="7.24" height="7.24" transform="translate(-25 134.69) rotate(-76.43)"/>
      <rect x="57.53" y="128.86" width="7.24" height="7.24" transform="translate(-81.97 160.84) rotate(-76.43)"/>
      <rect x="74.26" y="28.65" width="7.24" height="7.24" transform="translate(28.25 100.41) rotate(-76.43)"/>
      <rect x="72.56" y="35.68" width="7.24" height="7.24" transform="translate(20.11 104.14) rotate(-76.43)"/>
      <rect x="70.87" y="42.72" width="7.24" height="7.24" transform="translate(11.97 107.88) rotate(-76.43)"/>
      <rect x="69.17" y="49.76" width="7.24" height="7.24" transform="translate(3.83 111.61) rotate(-76.43)"/>
      <rect x="67.47" y="56.79" width="7.24" height="7.24" transform="translate(-4.31 115.35) rotate(-76.43)"/>
      <rect x="65.77" y="63.83" width="7.24" height="7.24" transform="translate(-12.45 119.08) rotate(-76.43)"/>
      <rect x="64.08" y="70.87" width="7.24" height="7.24" transform="translate(-20.59 122.82) rotate(-76.43)"/>
      <rect x="62.38" y="77.9" width="7.24" height="7.24" transform="translate(-28.73 126.55) rotate(-76.43)"/>
      <rect x="60.68" y="84.94" width="7.24" height="7.24" transform="translate(-36.87 130.29) rotate(-76.43)"/>
      <rect x="52.19" y="120.12" width="7.24" height="7.24" transform="translate(-77.57 148.97) rotate(-76.43)"/>
      <rect x="50.49" y="127.16" width="7.24" height="7.24" transform="translate(-85.71 152.7) rotate(-76.43)"/>
      <rect x="68.92" y="19.91" width="7.24" height="7.24" transform="translate(32.65 88.53) rotate(-76.43)"/>
      <rect x="67.23" y="26.95" width="7.24" height="7.24" transform="translate(24.51 92.27) rotate(-76.43)"/>
      <rect x="65.53" y="33.99" width="7.24" height="7.24" transform="translate(16.37 96) rotate(-76.43)"/>
      <rect x="63.83" y="41.02" width="7.24" height="7.24" transform="translate(8.23 99.74) rotate(-76.43)"/>
      <rect x="62.13" y="48.06" width="7.24" height="7.24" transform="translate(.09 103.47) rotate(-76.43)"/>
      <rect x="60.43" y="55.1" width="7.24" height="7.24" transform="translate(-8.05 107.21) rotate(-76.43)"/>
      <rect x="58.74" y="62.13" width="7.24" height="7.24" transform="translate(-16.19 110.94) rotate(-76.43)"/>
      <rect x="57.04" y="69.17" width="7.24" height="7.24" transform="translate(-24.33 114.68) rotate(-76.43)"/>
      <rect x="55.34" y="76.21" width="7.24" height="7.24" transform="translate(-32.47 118.41) rotate(-76.43)"/>
      <rect x="53.64" y="83.24" width="7.24" height="7.24" transform="translate(-40.61 122.15) rotate(-76.43)"/>
      <rect x="51.95" y="90.28" width="7.24" height="7.24" transform="translate(-48.75 125.89) rotate(-76.43)"/>
      <rect x="46.85" y="111.39" width="7.24" height="7.24" transform="translate(-73.17 137.09) rotate(-76.43)"/>
      <rect x="45.15" y="118.42" width="7.24" height="7.24" transform="translate(-81.31 140.83) rotate(-76.43)"/>
      <rect x="63.59" y="11.18" width="7.24" height="7.24" transform="translate(37.05 76.66) rotate(-76.43)"/>
      <rect x="61.89" y="18.22" width="7.24" height="7.24" transform="translate(28.91 80.39) rotate(-76.43)"/>
      <rect x="60.19" y="25.25" width="7.24" height="7.24" transform="translate(20.77 84.13) rotate(-76.43)"/>
      <rect x="58.49" y="32.29" width="7.24" height="7.24" transform="translate(12.64 87.86) rotate(-76.43)"/>
      <rect x="56.79" y="39.33" width="7.24" height="7.24" transform="translate(4.5 91.6) rotate(-76.43)"/>
      <rect x="55.1" y="46.36" width="7.24" height="7.24" transform="translate(-3.64 95.33) rotate(-76.43)"/>
      <rect x="53.4" y="53.4" width="7.24" height="7.24" transform="translate(-11.78 99.07) rotate(-76.43)"/>
      <rect x="51.7" y="60.43" width="7.24" height="7.24" transform="translate(-19.92 102.8) rotate(-76.43)"/>
      <rect x="50" y="67.47" width="7.24" height="7.24" transform="translate(-28.06 106.54) rotate(-76.43)"/>
      <rect x="48.3" y="74.51" width="7.24" height="7.24" transform="translate(-36.2 110.28) rotate(-76.43)"/>
      <rect x="46.61" y="81.54" width="7.24" height="7.24" transform="translate(-44.34 114.01) rotate(-76.43)"/>
      <rect x="44.91" y="88.58" width="7.24" height="7.24" transform="translate(-52.48 117.75) rotate(-76.43)"/>
      <rect x="43.21" y="95.62" width="7.24" height="7.24" transform="translate(-60.62 121.48) rotate(-76.43)"/>
      <rect x="41.51" y="102.65" width="7.24" height="7.24" transform="translate(-68.76 125.22) rotate(-76.43)"/>
      <rect x="39.82" y="109.69" width="7.24" height="7.24" transform="translate(-76.9 128.95) rotate(-76.43)"/>
      <rect x="58.25" y="2.45" width="7.24" height="7.24" transform="translate(41.46 64.78) rotate(-76.43)"/>
      <rect x="56.55" y="9.48" width="7.24" height="7.24" transform="translate(33.32 68.52) rotate(-76.43)"/>
      <rect x="54.85" y="16.52" width="7.24" height="7.24" transform="translate(25.18 72.25) rotate(-76.43)"/>
      <rect x="53.15" y="23.55" width="7.24" height="7.24" transform="translate(17.04 75.99) rotate(-76.43)"/>
      <rect x="51.46" y="30.59" width="7.24" height="7.24" transform="translate(8.9 79.72) rotate(-76.43)"/>
      <rect x="49.76" y="37.63" width="7.24" height="7.24" transform="translate(.76 83.46) rotate(-76.43)"/>
      <rect x="48.06" y="44.66" width="7.24" height="7.24" transform="translate(-7.38 87.19) rotate(-76.43)"/>
      <rect x="46.36" y="51.7" width="7.24" height="7.24" transform="translate(-15.52 90.93) rotate(-76.43)"/>
      <rect x="44.66" y="58.74" width="7.24" height="7.24" transform="translate(-23.66 94.66) rotate(-76.43)"/>
      <rect x="42.97" y="65.77" width="7.24" height="7.24" transform="translate(-31.8 98.4) rotate(-76.43)"/>
      <rect x="41.27" y="72.81" width="7.24" height="7.24" transform="translate(-39.94 102.14) rotate(-76.43)"/>
      <rect x="39.57" y="79.85" width="7.24" height="7.24" transform="translate(-48.08 105.87) rotate(-76.43)"/>
      <rect x="37.87" y="86.88" width="7.24" height="7.24" transform="translate(-56.22 109.61) rotate(-76.43)"/>
      <rect x="36.17" y="93.92" width="7.24" height="7.24" transform="translate(-64.36 113.34) rotate(-76.43)"/>
      <rect x="34.48" y="100.95" width="7.24" height="7.24" transform="translate(-72.5 117.08) rotate(-76.43)"/>
      <rect x="51.21" y=".75" width="7.24" height="7.24" transform="translate(37.72 56.64) rotate(-76.43)"/>
      <rect x="49.51" y="7.78" width="7.24" height="7.24" transform="translate(29.58 60.38) rotate(-76.43)"/>
      <rect x="47.82" y="14.82" width="7.24" height="7.24" transform="translate(21.44 64.11) rotate(-76.43)"/>
      <rect x="46.12" y="21.86" width="7.24" height="7.24" transform="translate(13.3 67.85) rotate(-76.43)"/>
      <rect x="44.42" y="28.89" width="7.24" height="7.24" transform="translate(5.16 71.58) rotate(-76.43)"/>
      <rect x="42.72" y="35.93" width="7.24" height="7.24" transform="translate(-2.98 75.32) rotate(-76.43)"/>
      <rect x="41.02" y="42.97" width="7.24" height="7.24" transform="translate(-11.11 79.05) rotate(-76.43)"/>
      <rect x="39.33" y="50" width="7.24" height="7.24" transform="translate(-19.25 82.79) rotate(-76.43)"/>
      <rect x="37.63" y="57.04" width="7.24" height="7.24" transform="translate(-27.39 86.53) rotate(-76.43)"/>
      <rect x="35.93" y="64.08" width="7.24" height="7.24" transform="translate(-35.53 90.26) rotate(-76.43)"/>
      <rect x="34.23" y="71.11" width="7.24" height="7.24" transform="translate(-43.67 94) rotate(-76.43)"/>
      <rect x="32.53" y="78.15" width="7.24" height="7.24" transform="translate(-51.81 97.73) rotate(-76.43)"/>
      <rect x="30.84" y="85.18" width="7.24" height="7.24" transform="translate(-59.95 101.47) rotate(-76.43)"/>
      <rect x="29.14" y="92.22" width="7.24" height="7.24" transform="translate(-68.09 105.2) rotate(-76.43)"/>
      <rect x="27.44" y="99.26" width="7.24" height="7.24" transform="translate(-76.23 108.94) rotate(-76.43)"/>
      <rect x="42.48" y="6.09" width="7.24" height="7.24" transform="translate(25.85 52.24) rotate(-76.43)"/>
      <rect x="40.78" y="13.12" width="7.24" height="7.24" transform="translate(17.71 55.97) rotate(-76.43)"/>
      <rect x="39.08" y="20.16" width="7.24" height="7.24" transform="translate(9.57 59.71) rotate(-76.43)"/>
      <rect x="37.38" y="27.2" width="7.24" height="7.24" transform="translate(1.43 63.44) rotate(-76.43)"/>
      <rect x="35.68" y="34.23" width="7.24" height="7.24" transform="translate(-6.71 67.18) rotate(-76.43)"/>
      <rect x="33.99" y="41.27" width="7.24" height="7.24" transform="translate(-14.85 70.92) rotate(-76.43)"/>
      <rect x="32.29" y="48.3" width="7.24" height="7.24" transform="translate(-22.99 74.65) rotate(-76.43)"/>
      <rect x="30.59" y="55.34" width="7.24" height="7.24" transform="translate(-31.13 78.39) rotate(-76.43)"/>
      <rect x="28.89" y="62.38" width="7.24" height="7.24" transform="translate(-39.27 82.12) rotate(-76.43)"/>
      <rect x="27.2" y="69.41" width="7.24" height="7.24" transform="translate(-47.41 85.86) rotate(-76.43)"/>
      <rect x="25.5" y="76.45" width="7.24" height="7.24" transform="translate(-55.55 89.59) rotate(-76.43)"/>
      <rect x="23.8" y="83.49" width="7.24" height="7.24" transform="translate(-63.69 93.33) rotate(-76.43)"/>
      <rect x="22.1" y="90.52" width="7.24" height="7.24" transform="translate(-71.83 97.06) rotate(-76.43)"/>
      <rect x="33.74" y="11.42" width="7.24" height="7.24" transform="translate(13.97 47.83) rotate(-76.43)"/>
      <rect x="32.04" y="18.46" width="7.24" height="7.24" transform="translate(5.83 51.57) rotate(-76.43)"/>
      <rect x="30.35" y="25.5" width="7.24" height="7.24" transform="translate(-2.31 55.3) rotate(-76.43)"/>
      <rect x="28.65" y="32.53" width="7.24" height="7.24" transform="translate(-10.45 59.04) rotate(-76.43)"/>
      <rect x="26.95" y="39.57" width="7.24" height="7.24" transform="translate(-18.59 62.78) rotate(-76.43)"/>
      <rect x="25.25" y="46.61" width="7.24" height="7.24" transform="translate(-26.73 66.51) rotate(-76.43)"/>
      <rect x="23.55" y="53.64" width="7.24" height="7.24" transform="translate(-34.86 70.25) rotate(-76.43)"/>
      <rect x="21.86" y="60.68" width="7.24" height="7.24" transform="translate(-43 73.98) rotate(-76.43)"/>
      <rect x="20.16" y="67.72" width="7.24" height="7.24" transform="translate(-51.14 77.72) rotate(-76.43)"/>
      <rect x="18.46" y="74.75" width="7.24" height="7.24" transform="translate(-59.28 81.45) rotate(-76.43)"/>
      <rect x="16.76" y="81.79" width="7.24" height="7.24" transform="translate(-67.42 85.19) rotate(-76.43)"/>
      <rect x="25.01" y="16.76" width="7.24" height="7.24" transform="translate(2.1 43.43) rotate(-76.43)"/>
      <rect x="23.31" y="23.8" width="7.24" height="7.24" transform="translate(-6.04 47.17) rotate(-76.43)"/>
      <rect x="21.61" y="30.84" width="7.24" height="7.24" transform="translate(-14.18 50.9) rotate(-76.43)"/>
      <rect x="19.91" y="37.87" width="7.24" height="7.24" transform="translate(-22.32 54.64) rotate(-76.43)"/>
      <rect x="18.22" y="44.91" width="7.24" height="7.24" transform="translate(-30.46 58.37) rotate(-76.43)"/>
      <rect x="16.52" y="51.95" width="7.24" height="7.24" transform="translate(-38.6 62.11) rotate(-76.43)"/>
      <rect x="14.82" y="58.98" width="7.24" height="7.24" transform="translate(-46.74 65.84) rotate(-76.43)"/>
      <rect x="13.12" y="66.02" width="7.24" height="7.24" transform="translate(-54.88 69.58) rotate(-76.43)"/>
      <rect x="11.42" y="73.05" width="7.24" height="7.24" transform="translate(-63.02 73.31) rotate(-76.43)"/>
      <rect x="16.27" y="22.1" width="7.24" height="7.24" transform="translate(-9.78 39.03) rotate(-76.43)"/>
      <rect x="14.58" y="29.14" width="7.24" height="7.24" transform="translate(-17.92 42.76) rotate(-76.43)"/>
      <rect x="12.88" y="36.17" width="7.24" height="7.24" transform="translate(-26.06 46.5) rotate(-76.43)"/>
      <rect x="11.18" y="43.21" width="7.24" height="7.24" transform="translate(-34.2 50.23) rotate(-76.43)"/>
      <rect x="9.48" y="50.25" width="7.24" height="7.24" transform="translate(-42.34 53.97) rotate(-76.43)"/>
      <rect x="7.78" y="57.28" width="7.24" height="7.24" transform="translate(-50.47 57.7) rotate(-76.43)"/>
      <rect x="6.09" y="64.32" width="7.24" height="7.24" transform="translate(-58.61 61.44) rotate(-76.43)"/>
      <rect x="7.54" y="27.44" width="7.24" height="7.24" transform="translate(-21.65 34.62) rotate(-76.43)"/>
      <rect x="5.84" y="34.48" width="7.24" height="7.24" transform="translate(-29.79 38.36) rotate(-76.43)"/>
      <rect x="4.14" y="41.51" width="7.24" height="7.24" transform="translate(-37.93 42.09) rotate(-76.43)"/>
      <rect x="2.45" y="48.55" width="7.24" height="7.24" transform="translate(-46.07 45.83) rotate(-76.43)"/>
      <rect x=".75" y="55.59" width="7.24" height="7.24" transform="translate(-54.21 49.56) rotate(-76.43)"/>
      <line x1="3.4" y1="47.8" x2="5.09" y2="40.76"/>
      <line x1="1.7" y1="54.84" x2="3.4" y2="47.8"/>
    </g>
  </g>
</svg>