<?xml version="1.0" encoding="UTF-8"?>
<svg id="Layer_2" xmlns="http://www.w3.org/2000/svg" viewBox="0 0 99.53 201.66">
  <defs>
    <style>
      .cls-1 {
        fill: #ddebf1;
      }
    </style>
  </defs>
  <g id="posters">
    <g>
      <rect   x="32.98" y="183.45" width="6.98" height="6.98" transform="translate(-84.65 39.95) rotate(-28.45)"/>
      <rect   x="26.83" y="186.77" width="6.98" height="6.98" transform="translate(-86.98 37.42) rotate(-28.45)"/>
      <rect   x="20.69" y="190.1" width="6.98" height="6.98" transform="translate(-89.3 34.9) rotate(-28.45)"/>
      <rect   x="14.55" y="193.43" width="6.98" height="6.98" transform="translate(-91.63 32.38) rotate(-28.45)"/>
      <rect   x="35.79" y="173.98" width="6.98" height="6.98" transform="translate(-79.8 40.14) rotate(-28.45)"/>
      <rect   x="29.65" y="177.31" width="6.98" height="6.98" transform="translate(-82.13 37.62) rotate(-28.45)"/>
      <rect   x="11.22" y="187.29" width="6.98" height="6.98" transform="translate(-89.11 30.05) rotate(-28.45)"/>
      <rect   x="38.6" y="164.51" width="6.98" height="6.98" transform="translate(-74.95 40.34) rotate(-28.45)"/>
      <rect   x="32.46" y="167.84" width="6.98" height="6.98" transform="translate(-77.28 37.82) rotate(-28.45)"/>
      <rect   x="7.9" y="181.15" width="6.98" height="6.98" transform="translate(-86.58 27.72) rotate(-28.45)"/>
      <line   x1="58.6" y1="147.14" x2="52.46" y2="150.47"/>
      <rect   x="41.42" y="155.04" width="6.98" height="6.98" transform="translate(-70.1 40.54) rotate(-28.45)"/>
      <rect   x="35.28" y="158.37" width="6.98" height="6.98" transform="translate(-72.43 38.01) rotate(-28.45)"/>
      <rect   x="4.57" y="175.01" width="6.98" height="6.98" transform="translate(-84.06 25.4) rotate(-28.45)"/>
      <rect   x="44.23" y="145.57" width="6.98" height="6.98" transform="translate(-65.25 40.74) rotate(-28.45)"/>
      <rect   x="38.09" y="148.9" width="6.98" height="6.98" transform="translate(-67.58 38.21) rotate(-28.45)"/>
      <rect   x="7.38" y="165.54" width="6.98" height="6.98" transform="translate(-79.21 25.59) rotate(-28.45)"/>
      <rect   x="1.24" y="168.86" width="6.98" height="6.98" transform="translate(-81.54 23.07) rotate(-28.45)"/>
      <rect   x="47.04" y="136.1" width="6.98" height="6.98" transform="translate(-60.4 40.93) rotate(-28.45)"/>
      <rect   x="40.9" y="139.43" width="6.98" height="6.98" transform="translate(-62.72 38.41) rotate(-28.45)"/>
      <rect   x="10.2" y="156.07" width="6.98" height="6.98" transform="translate(-74.36 25.79) rotate(-28.45)"/>
      <rect   x="4.06" y="159.4" width="6.98" height="6.98" transform="translate(-76.69 23.27) rotate(-28.45)"/>
      <rect   x="49.86" y="126.63" width="6.98" height="6.98" transform="translate(-55.55 41.13) rotate(-28.45)"/>
      <rect   x="43.72" y="129.96" width="6.98" height="6.98" transform="translate(-57.87 38.61) rotate(-28.45)"/>
      <rect   x="13.01" y="146.6" width="6.98" height="6.98" transform="translate(-69.51 25.99) rotate(-28.45)"/>
      <rect   x="6.87" y="149.93" width="6.98" height="6.98" transform="translate(-71.83 23.46) rotate(-28.45)"/>
      <rect   x="52.67" y="117.17" width="6.98" height="6.98" transform="translate(-50.7 41.33) rotate(-28.45)"/>
      <rect   x="46.53" y="120.49" width="6.98" height="6.98" transform="translate(-53.02 38.8) rotate(-28.45)"/>
      <rect   x="15.82" y="137.13" width="6.98" height="6.98" transform="translate(-64.66 26.18) rotate(-28.45)"/>
      <rect   x="9.68" y="140.46" width="6.98" height="6.98" transform="translate(-66.98 23.66) rotate(-28.45)"/>
      <rect   x="55.49" y="107.7" width="6.98" height="6.98" transform="translate(-45.85 41.52) rotate(-28.45)"/>
      <rect   x="49.34" y="111.02" width="6.98" height="6.98" transform="translate(-48.17 39) rotate(-28.45)"/>
      <rect   x="18.64" y="127.66" width="6.98" height="6.98" transform="translate(-59.81 26.38) rotate(-28.45)"/>
      <rect   x="12.5" y="130.99" width="6.98" height="6.98" transform="translate(-62.13 23.86) rotate(-28.45)"/>
      <rect   x="58.3" y="98.23" width="6.98" height="6.98" transform="translate(-41 41.72) rotate(-28.45)"/>
      <rect   x="52.16" y="101.56" width="6.98" height="6.98" transform="translate(-43.32 39.2) rotate(-28.45)"/>
      <rect   x="54.97" y="92.09" width="6.98" height="6.98" transform="translate(-38.47 39.39) rotate(-28.45)"/>
      <rect   x="57.79" y="82.62" width="6.98" height="6.98" transform="translate(-33.62 39.59) rotate(-28.45)"/>
      <rect   x="21.45" y="118.19" width="6.98" height="6.98" transform="translate(-54.96 26.58) rotate(-28.45)"/>
      <rect   x="15.31" y="121.52" width="6.98" height="6.98" transform="translate(-57.28 24.05) rotate(-28.45)"/>
      <line   x1="96.72" y1="70.88" x2="90.58" y2="74.21"/>
      <line   x1="90.58" y1="74.21" x2="84.44" y2="77.54"/>
      <line   x1="84.44" y1="77.54" x2="78.3" y2="80.86"/>
      <rect   x="61.11" y="88.76" width="6.98" height="6.98" transform="translate(-36.15 41.92) rotate(-28.45)"/>
      <rect   x="67.26" y="85.43" width="6.98" height="6.98" transform="translate(-33.82 44.44) rotate(-28.45)"/>
      <rect   x="24.27" y="108.72" width="6.98" height="6.98" transform="translate(-50.11 26.78) rotate(-28.45)"/>
      <rect   x="18.13" y="112.05" width="6.98" height="6.98" transform="translate(-52.43 24.25) rotate(-28.45)"/>
      <rect   x="88.49" y="65.98" width="6.98" height="6.98" transform="translate(-21.99 52.21) rotate(-28.45)"/>
      <rect   x="82.35" y="69.31" width="6.98" height="6.98" transform="translate(-24.31 49.69) rotate(-28.45)"/>
      <rect   x="76.21" y="72.64" width="6.98" height="6.98" transform="translate(-26.64 47.16) rotate(-28.45)"/>
      <rect   x="70.07" y="75.96" width="6.98" height="6.98" transform="translate(-28.97 44.64) rotate(-28.45)"/>
      <rect   x="63.93" y="79.29" width="6.98" height="6.98" transform="translate(-31.29 42.11) rotate(-28.45)"/>
      <rect   x="27.08" y="99.26" width="6.98" height="6.98" transform="translate(-45.26 26.97) rotate(-28.45)"/>
      <rect   x="20.94" y="102.58" width="6.98" height="6.98" transform="translate(-47.58 24.45) rotate(-28.45)"/>
      <rect   x="91.31" y="56.51" width="6.98" height="6.98" transform="translate(-17.14 52.41) rotate(-28.45)"/>
      <rect   x="85.17" y="59.84" width="6.98" height="6.98" transform="translate(-19.46 49.88) rotate(-28.45)"/>
      <rect   x="79.02" y="63.17" width="6.98" height="6.98" transform="translate(-21.79 47.36) rotate(-28.45)"/>
      <rect   x="72.88" y="66.5" width="6.98" height="6.98" transform="translate(-24.12 44.84) rotate(-28.45)"/>
      <rect   x="66.74" y="69.82" width="6.98" height="6.98" transform="translate(-26.44 42.31) rotate(-28.45)"/>
      <rect   x="29.89" y="89.79" width="6.98" height="6.98" transform="translate(-40.4 27.17) rotate(-28.45)"/>
      <rect   x="23.75" y="93.11" width="6.98" height="6.98" transform="translate(-42.73 24.65) rotate(-28.45)"/>
      <rect   x="87.98" y="50.37" width="6.98" height="6.98" transform="translate(-14.61 50.08) rotate(-28.45)"/>
      <rect   x="81.84" y="53.7" width="6.98" height="6.98" transform="translate(-16.94 47.56) rotate(-28.45)"/>
      <rect   x="75.7" y="57.03" width="6.98" height="6.98" transform="translate(-19.27 45.03) rotate(-28.45)"/>
      <rect   x="69.56" y="60.35" width="6.98" height="6.98" transform="translate(-21.59 42.51) rotate(-28.45)"/>
      <rect   x="63.41" y="63.68" width="6.98" height="6.98" transform="translate(-23.92 39.99) rotate(-28.45)"/>
      <rect   x="57.27" y="67.01" width="6.98" height="6.98" transform="translate(-26.25 37.46) rotate(-28.45)"/>
      <rect   x="32.71" y="80.32" width="6.98" height="6.98" transform="translate(-35.55 27.37) rotate(-28.45)"/>
      <rect   x="26.57" y="83.65" width="6.98" height="6.98" transform="translate(-37.88 24.84) rotate(-28.45)"/>
      <rect   x="84.65" y="44.23" width="6.98" height="6.98" transform="translate(-12.09 47.75) rotate(-28.45)"/>
      <rect   x="78.51" y="47.56" width="6.98" height="6.98" transform="translate(-14.42 45.23) rotate(-28.45)"/>
      <rect   x="72.37" y="50.89" width="6.98" height="6.98" transform="translate(-16.74 42.71) rotate(-28.45)"/>
      <rect   x="66.23" y="54.21" width="6.98" height="6.98" transform="translate(-19.07 40.18) rotate(-28.45)"/>
      <rect   x="60.09" y="57.54" width="6.98" height="6.98" transform="translate(-21.4 37.66) rotate(-28.45)"/>
      <rect   x="53.95" y="60.87" width="6.98" height="6.98" transform="translate(-23.72 35.13) rotate(-28.45)"/>
      <rect   x="47.8" y="64.2" width="6.98" height="6.98" transform="translate(-26.05 32.61) rotate(-28.45)"/>
      <rect   x="35.52" y="70.85" width="6.98" height="6.98" transform="translate(-30.7 27.56) rotate(-28.45)"/>
      <rect   x="29.38" y="74.18" width="6.98" height="6.98" transform="translate(-33.03 25.04) rotate(-28.45)"/>
      <rect   x="81.32" y="38.09" width="6.98" height="6.98" transform="translate(-9.57 45.43) rotate(-28.45)"/>
      <rect   x="75.18" y="41.42" width="6.98" height="6.98" transform="translate(-11.89 42.9) rotate(-28.45)"/>
      <rect   x="69.04" y="44.74" width="6.98" height="6.98" transform="translate(-14.22 40.38) rotate(-28.45)"/>
      <rect   x="62.9" y="48.07" width="6.98" height="6.98" transform="translate(-16.55 37.86) rotate(-28.45)"/>
      <rect   x="56.76" y="51.4" width="6.98" height="6.98" transform="translate(-18.87 35.33) rotate(-28.45)"/>
      <rect   x="50.62" y="54.73" width="6.98" height="6.98" transform="translate(-21.2 32.81) rotate(-28.45)"/>
      <rect   x="44.48" y="58.05" width="6.98" height="6.98" transform="translate(-23.53 30.28) rotate(-28.45)"/>
      <rect   x="38.34" y="61.38" width="6.98" height="6.98" transform="translate(-25.85 27.76) rotate(-28.45)"/>
      <rect   x="32.19" y="64.71" width="6.98" height="6.98" transform="translate(-28.18 25.24) rotate(-28.45)"/>
      <rect   x="26.05" y="68.04" width="6.98" height="6.98" transform="translate(-30.51 22.71) rotate(-28.45)"/>
      <line   x1="28.14" y1="76.26" x2="24.81" y2="70.12"/>
      <rect   x="84.14" y="28.62" width="6.98" height="6.98" transform="translate(-4.72 45.62) rotate(-28.45)"/>
      <rect   x="78" y="31.95" width="6.98" height="6.98" transform="translate(-7.04 43.1) rotate(-28.45)"/>
      <rect   x="71.86" y="35.28" width="6.98" height="6.98" transform="translate(-9.37 40.58) rotate(-28.45)"/>
      <rect   x="65.71" y="38.6" width="6.98" height="6.98" transform="translate(-11.7 38.05) rotate(-28.45)"/>
      <rect   x="59.57" y="41.93" width="6.98" height="6.98" transform="translate(-14.02 35.53) rotate(-28.45)"/>
      <rect   x="53.43" y="45.26" width="6.98" height="6.98" transform="translate(-16.35 33) rotate(-28.45)"/>
      <rect   x="47.29" y="48.59" width="6.98" height="6.98" transform="translate(-18.68 30.48) rotate(-28.45)"/>
      <rect   x="41.15" y="51.91" width="6.98" height="6.98" transform="translate(-21 27.96) rotate(-28.45)"/>
      <rect   x="35.01" y="55.24" width="6.98" height="6.98" transform="translate(-23.33 25.43) rotate(-28.45)"/>
      <rect   x="28.87" y="58.57" width="6.98" height="6.98" transform="translate(-25.66 22.91) rotate(-28.45)"/>
      <rect   x="86.95" y="19.15" width="6.98" height="6.98" transform="translate(.13 45.82) rotate(-28.45)"/>
      <rect   x="80.81" y="22.48" width="6.98" height="6.98" transform="translate(-2.19 43.3) rotate(-28.45)"/>
      <rect   x="74.67" y="25.81" width="6.98" height="6.98" transform="translate(-4.52 40.77) rotate(-28.45)"/>
      <rect   x="68.53" y="29.13" width="6.98" height="6.98" transform="translate(-6.85 38.25) rotate(-28.45)"/>
      <rect   x="62.39" y="32.46" width="6.98" height="6.98" transform="translate(-9.17 35.73) rotate(-28.45)"/>
      <rect   x="56.25" y="35.79" width="6.98" height="6.98" transform="translate(-11.5 33.2) rotate(-28.45)"/>
      <rect   x="50.1" y="39.12" width="6.98" height="6.98" transform="translate(-13.83 30.68) rotate(-28.45)"/>
      <rect   x="43.96" y="42.44" width="6.98" height="6.98" transform="translate(-16.15 28.15) rotate(-28.45)"/>
      <rect   x="37.82" y="45.77" width="6.98" height="6.98" transform="translate(-18.48 25.63) rotate(-28.45)"/>
      <rect   x="31.68" y="49.1" width="6.98" height="6.98" transform="translate(-20.81 23.11) rotate(-28.45)"/>
      <rect   x="25.54" y="52.43" width="6.98" height="6.98" transform="translate(-23.13 20.58) rotate(-28.45)"/>
      <rect   x="83.62" y="13.01" width="6.98" height="6.98" transform="translate(2.66 43.49) rotate(-28.45)"/>
      <rect   x="77.48" y="16.34" width="6.98" height="6.98" transform="translate(.33 40.97) rotate(-28.45)"/>
      <rect   x="71.34" y="19.67" width="6.98" height="6.98" transform="translate(-1.99 38.45) rotate(-28.45)"/>
      <rect   x="65.2" y="22.99" width="6.98" height="6.98" transform="translate(-4.32 35.92) rotate(-28.45)"/>
      <rect   x="59.06" y="26.32" width="6.98" height="6.98" transform="translate(-6.65 33.4) rotate(-28.45)"/>
      <rect   x="52.92" y="29.65" width="6.98" height="6.98" transform="translate(-8.98 30.88) rotate(-28.45)"/>
      <rect   x="46.78" y="32.98" width="6.98" height="6.98" transform="translate(-11.3 28.35) rotate(-28.45)"/>
      <rect   x="40.64" y="36.3" width="6.98" height="6.98" transform="translate(-13.63 25.83) rotate(-28.45)"/>
      <rect   x="34.49" y="39.63" width="6.98" height="6.98" transform="translate(-15.96 23.3) rotate(-28.45)"/>
      <rect   x="28.35" y="42.96" width="6.98" height="6.98" transform="translate(-18.28 20.78) rotate(-28.45)"/>
      <rect   x="22.21" y="46.28" width="6.98" height="6.98" transform="translate(-20.61 18.26) rotate(-28.45)"/>
      <rect   x="80.3" y="6.87" width="6.98" height="6.98" transform="translate(5.18 41.17) rotate(-28.45)"/>
      <rect   x="74.16" y="10.2" width="6.98" height="6.98" transform="translate(2.86 38.64) rotate(-28.45)"/>
      <rect   x="68.01" y="13.52" width="6.98" height="6.98" transform="translate(.53 36.12) rotate(-28.45)"/>
      <rect   x="61.87" y="16.85" width="6.98" height="6.98" transform="translate(-1.8 33.6) rotate(-28.45)"/>
      <rect   x="55.73" y="20.18" width="6.98" height="6.98" transform="translate(-4.12 31.07) rotate(-28.45)"/>
      <rect   x="49.59" y="23.51" width="6.98" height="6.98" transform="translate(-6.45 28.55) rotate(-28.45)"/>
      <rect   x="43.45" y="26.83" width="6.98" height="6.98" transform="translate(-8.78 26.02) rotate(-28.45)"/>
      <rect   x="37.31" y="30.16" width="6.98" height="6.98" transform="translate(-11.1 23.5) rotate(-28.45)"/>
      <rect   x="31.17" y="33.49" width="6.98" height="6.98" transform="translate(-13.43 20.98) rotate(-28.45)"/>
      <rect   x="25.03" y="36.82" width="6.98" height="6.98" transform="translate(-15.76 18.45) rotate(-28.45)"/>
      <rect   x="70.83" y="4.06" width="6.98" height="6.98" transform="translate(5.38 36.32) rotate(-28.45)"/>
      <rect   x="64.69" y="7.38" width="6.98" height="6.98" transform="translate(3.05 33.79) rotate(-28.45)"/>
      <rect   x="58.55" y="10.71" width="6.98" height="6.98" transform="translate(.73 31.27) rotate(-28.45)"/>
      <rect   x="52.4" y="14.04" width="6.98" height="6.98" transform="translate(-1.6 28.75) rotate(-28.45)"/>
      <rect   x="46.26" y="17.37" width="6.98" height="6.98" transform="translate(-3.93 26.22) rotate(-28.45)"/>
      <rect   x="33.98" y="24.02" width="6.98" height="6.98" transform="translate(-8.58 21.17) rotate(-28.45)"/>
      <rect   x="27.84" y="27.35" width="6.98" height="6.98" transform="translate(-10.91 18.65) rotate(-28.45)"/>
      <rect   x="61.36" y="1.24" width="6.98" height="6.98" transform="translate(5.58 31.47) rotate(-28.45)"/>
      <rect   x="55.22" y="4.57" width="6.98" height="6.98" transform="translate(3.25 28.94) rotate(-28.45)"/>
      <rect   x="49.08" y="7.9" width="6.98" height="6.98" transform="translate(.92 26.42) rotate(-28.45)"/>
    </g>
  </g>
</svg>