<?xml version="1.0" encoding="UTF-8"?>
<svg id="Layer_2" xmlns="http://www.w3.org/2000/svg" viewBox="0 0 83.39 146.51">
  <g id="posters">
    <g>
      <rect    x="37.33" y="127.4" width="4.89" height="4.69" transform="translate(-42.93 22.16) rotate(-20.51)"/>
      <rect    x="32.75" y="129.12" width="4.89" height="4.69" transform="translate(-43.82 20.66) rotate(-20.51)"/>
      <rect    x="28.17" y="130.83" width="4.89" height="4.69" transform="translate(-44.71 19.16) rotate(-20.51)"/>
      <rect    x="23.58" y="132.55" width="4.89" height="4.69" transform="translate(-45.6 17.66) rotate(-20.51)"/>
      <rect    x="19" y="134.26" width="4.89" height="4.69" transform="translate(-46.49 16.17) rotate(-20.51)"/>
      <rect    x="14.42" y="135.97" width="4.89" height="4.69" transform="translate(-47.38 14.67) rotate(-20.51)"/>
      <rect    x="9.83" y="137.69" width="4.89" height="4.69" transform="translate(-48.27 13.17) rotate(-20.51)"/>
      <rect    x="5.25" y="139.4" width="4.89" height="4.69" transform="translate(-49.17 11.68) rotate(-20.51)"/>
      <rect    x=".67" y="141.12" width="4.89" height="4.69" transform="translate(-50.06 10.18) rotate(-20.51)"/>
      <rect    x="40.28" y="121.3" width="4.89" height="4.69" transform="translate(-40.6 22.8) rotate(-20.51)"/>
      <rect    x="35.69" y="123.01" width="4.89" height="4.69" transform="translate(-41.5 21.3) rotate(-20.51)"/>
      <rect    x="31.11" y="124.73" width="4.89" height="4.69" transform="translate(-42.39 19.81) rotate(-20.51)"/>
      <rect    x="26.53" y="126.44" width="4.89" height="4.69" transform="translate(-43.28 18.31) rotate(-20.51)"/>
      <rect    x="21.94" y="128.16" width="4.89" height="4.69" transform="translate(-44.17 16.81) rotate(-20.51)"/>
      <rect    x="17.36" y="129.87" width="4.89" height="4.69" transform="translate(-45.06 15.31) rotate(-20.51)"/>
      <rect    x="12.77" y="131.58" width="4.89" height="4.69" transform="translate(-45.95 13.82) rotate(-20.51)"/>
      <rect    x="8.19" y="133.3" width="4.89" height="4.69" transform="translate(-46.84 12.32) rotate(-20.51)"/>
      <rect    x="3.61" y="135.01" width="4.89" height="4.69" transform="translate(-47.73 10.82) rotate(-20.51)"/>
      <rect    x="47.8" y="113.48" width="4.89" height="4.69" transform="translate(-37.39 24.94) rotate(-20.51)"/>
      <rect    x="43.22" y="115.19" width="4.89" height="4.69" transform="translate(-38.28 23.44) rotate(-20.51)"/>
      <rect    x="38.63" y="116.91" width="4.89" height="4.69" transform="translate(-39.17 21.95) rotate(-20.51)"/>
      <rect    x="34.05" y="118.62" width="4.89" height="4.69" transform="translate(-40.06 20.45) rotate(-20.51)"/>
      <rect    x="29.47" y="120.34" width="4.89" height="4.69" transform="translate(-40.95 18.95) rotate(-20.51)"/>
      <rect    x="24.88" y="122.05" width="4.89" height="4.69" transform="translate(-41.84 17.46) rotate(-20.51)"/>
      <rect    x="20.3" y="123.76" width="4.89" height="4.69" transform="translate(-42.73 15.96) rotate(-20.51)"/>
      <rect    x="15.72" y="125.48" width="4.89" height="4.69" transform="translate(-43.62 14.46) rotate(-20.51)"/>
      <rect    x="11.13" y="127.19" width="4.89" height="4.69" transform="translate(-44.52 12.96) rotate(-20.51)"/>
      <rect    x="6.55" y="128.91" width="4.89" height="4.69" transform="translate(-45.41 11.47) rotate(-20.51)"/>
      <rect    x="46.16" y="109.09" width="4.89" height="4.69" transform="translate(-35.95 24.09) rotate(-20.51)"/>
      <rect    x="41.58" y="110.8" width="4.89" height="4.69" transform="translate(-36.85 22.59) rotate(-20.51)"/>
      <rect    x="36.99" y="112.52" width="4.89" height="4.69" transform="translate(-37.74 21.09) rotate(-20.51)"/>
      <rect    x="32.41" y="114.23" width="4.89" height="4.69" transform="translate(-38.63 19.6) rotate(-20.51)"/>
      <rect    x="27.82" y="115.95" width="4.89" height="4.69" transform="translate(-39.52 18.1) rotate(-20.51)"/>
      <rect    x="23.24" y="117.66" width="4.89" height="4.69" transform="translate(-40.41 16.6) rotate(-20.51)"/>
      <rect    x="18.66" y="119.37" width="4.89" height="4.69" transform="translate(-41.3 15.1) rotate(-20.51)"/>
      <rect    x="14.07" y="121.09" width="4.89" height="4.69" transform="translate(-42.19 13.61) rotate(-20.51)"/>
      <rect    x="9.49" y="122.8" width="4.89" height="4.69" transform="translate(-43.08 12.11) rotate(-20.51)"/>
      <rect    x="44.52" y="104.7" width="4.89" height="4.69" transform="translate(-34.52 23.23) rotate(-20.51)"/>
      <rect    x="39.93" y="106.41" width="4.89" height="4.69" transform="translate(-35.41 21.74) rotate(-20.51)"/>
      <rect    x="35.35" y="108.13" width="4.89" height="4.69" transform="translate(-36.3 20.24) rotate(-20.51)"/>
      <rect    x="30.77" y="109.84" width="4.89" height="4.69" transform="translate(-37.19 18.74) rotate(-20.51)"/>
      <rect    x="26.18" y="111.56" width="4.89" height="4.69" transform="translate(-38.08 17.25) rotate(-20.51)"/>
      <rect    x="21.6" y="113.27" width="4.89" height="4.69" transform="translate(-38.98 15.75) rotate(-20.51)"/>
      <rect    x="17.02" y="114.98" width="4.89" height="4.69" transform="translate(-39.87 14.25) rotate(-20.51)"/>
      <rect    x="12.43" y="116.7" width="4.89" height="4.69" transform="translate(-40.76 12.75) rotate(-20.51)"/>
      <rect    x="7.85" y="118.41" width="4.89" height="4.69" transform="translate(-41.65 11.26) rotate(-20.51)"/>
      <rect    x="42.87" y="100.31" width="4.89" height="4.69" transform="translate(-33.09 22.38) rotate(-20.51)"/>
      <rect    x="38.29" y="102.02" width="4.89" height="4.69" transform="translate(-33.98 20.88) rotate(-20.51)"/>
      <rect    x="33.71" y="103.74" width="4.89" height="4.69" transform="translate(-34.87 19.39) rotate(-20.51)"/>
      <rect    x="29.12" y="105.45" width="4.89" height="4.69" transform="translate(-35.76 17.89) rotate(-20.51)"/>
      <rect    x="24.54" y="107.16" width="4.89" height="4.69" transform="translate(-36.65 16.39) rotate(-20.51)"/>
      <rect    x="19.96" y="108.88" width="4.89" height="4.69" transform="translate(-37.54 14.9) rotate(-20.51)"/>
      <rect    x="15.37" y="110.59" width="4.89" height="4.69" transform="translate(-38.43 13.4) rotate(-20.51)"/>
      <rect    x="10.79" y="112.31" width="4.89" height="4.69" transform="translate(-39.32 11.9) rotate(-20.51)"/>
      <rect    x="54.98" y="90.78" width="4.89" height="4.69" transform="translate(-28.98 26.02) rotate(-20.51)"/>
      <rect    x="41.23" y="95.92" width="4.89" height="4.69" transform="translate(-31.65 21.53) rotate(-20.51)"/>
      <rect    x="36.65" y="97.63" width="4.89" height="4.69" transform="translate(-32.54 20.03) rotate(-20.51)"/>
      <rect    x="32.07" y="99.35" width="4.89" height="4.69" transform="translate(-33.43 18.53) rotate(-20.51)"/>
      <rect    x="27.48" y="101.06" width="4.89" height="4.69" transform="translate(-34.33 17.04) rotate(-20.51)"/>
      <rect    x="22.9" y="102.77" width="4.89" height="4.69" transform="translate(-35.22 15.54) rotate(-20.51)"/>
      <rect    x="18.31" y="104.49" width="4.89" height="4.69" transform="translate(-36.11 14.04) rotate(-20.51)"/>
      <rect    x="13.73" y="106.2" width="4.89" height="4.69" transform="translate(-37 12.54) rotate(-20.51)"/>
      <rect    x="9.15" y="107.92" width="4.89" height="4.69" transform="translate(-37.89 11.05) rotate(-20.51)"/>
      <rect    x="53.34" y="86.38" width="4.89" height="4.69" transform="translate(-27.55 25.16) rotate(-20.51)"/>
      <rect    x="48.76" y="88.1" width="4.89" height="4.69" transform="translate(-28.44 23.67) rotate(-20.51)"/>
      <rect    x="39.59" y="91.53" width="4.89" height="4.69" transform="translate(-30.22 20.67) rotate(-20.51)"/>
      <rect    x="35.01" y="93.24" width="4.89" height="4.69" transform="translate(-31.11 19.18) rotate(-20.51)"/>
      <rect    x="30.42" y="94.96" width="4.89" height="4.69" transform="translate(-32 17.68) rotate(-20.51)"/>
      <rect    x="25.84" y="96.67" width="4.89" height="4.69" transform="translate(-32.89 16.18) rotate(-20.51)"/>
      <rect    x="21.26" y="98.38" width="4.89" height="4.69" transform="translate(-33.78 14.69) rotate(-20.51)"/>
      <rect    x="16.67" y="100.1" width="4.89" height="4.69" transform="translate(-34.67 13.19) rotate(-20.51)"/>
      <rect    x="12.09" y="101.81" width="4.89" height="4.69" transform="translate(-35.56 11.69) rotate(-20.51)"/>
      <rect    x="7.51" y="103.53" width="4.89" height="4.69" transform="translate(-36.46 10.19) rotate(-20.51)"/>
      <rect    x="56.28" y="80.28" width="4.89" height="4.69" transform="translate(-25.22 25.81) rotate(-20.51)"/>
      <rect    x="51.7" y="81.99" width="4.89" height="4.69" transform="translate(-26.11 24.31) rotate(-20.51)"/>
      <rect    x="47.12" y="83.71" width="4.89" height="4.69" transform="translate(-27 22.81) rotate(-20.51)"/>
      <rect    x="33.36" y="88.85" width="4.89" height="4.69" transform="translate(-29.68 18.32) rotate(-20.51)"/>
      <rect    x="28.78" y="90.57" width="4.89" height="4.69" transform="translate(-30.57 16.83) rotate(-20.51)"/>
      <rect    x="24.2" y="92.28" width="4.89" height="4.69" transform="translate(-31.46 15.33) rotate(-20.51)"/>
      <rect    x="19.61" y="93.99" width="4.89" height="4.69" transform="translate(-32.35 13.83) rotate(-20.51)"/>
      <rect    x="15.03" y="95.71" width="4.89" height="4.69" transform="translate(-33.24 12.33) rotate(-20.51)"/>
      <rect    x="10.45" y="97.42" width="4.89" height="4.69" transform="translate(-34.13 10.84) rotate(-20.51)"/>
      <rect    x="59.22" y="74.18" width="4.89" height="4.69" transform="translate(-22.9 26.45) rotate(-20.51)"/>
      <rect    x="54.64" y="75.89" width="4.89" height="4.69" transform="translate(-23.79 24.95) rotate(-20.51)"/>
      <rect    x="50.06" y="77.6" width="4.89" height="4.69" transform="translate(-24.68 23.46) rotate(-20.51)"/>
      <rect    x="45.47" y="79.32" width="4.89" height="4.69" transform="translate(-25.57 21.96) rotate(-20.51)"/>
      <rect    x="40.89" y="81.03" width="4.89" height="4.69" transform="translate(-26.46 20.46) rotate(-20.51)"/>
      <rect    x="57.58" y="69.78" width="4.89" height="4.69" transform="translate(-21.46 25.6) rotate(-20.51)"/>
      <rect    x="53" y="71.5" width="4.89" height="4.69" transform="translate(-22.35 24.1) rotate(-20.51)"/>
      <rect    x="48.41" y="73.21" width="4.89" height="4.69" transform="translate(-23.24 22.6) rotate(-20.51)"/>
      <rect    x="43.83" y="74.93" width="4.89" height="4.69" transform="translate(-24.14 21.11) rotate(-20.51)"/>
      <rect    x="39.25" y="76.64" width="4.89" height="4.69" transform="translate(-25.03 19.61) rotate(-20.51)"/>
      <rect    x="34.66" y="78.36" width="4.89" height="4.69" transform="translate(-25.92 18.11) rotate(-20.51)"/>
      <rect    x="30.08" y="80.07" width="4.89" height="4.69" transform="translate(-26.81 16.62) rotate(-20.51)"/>
      <rect    x="60.52" y="63.68" width="4.89" height="4.69" transform="translate(-19.14 26.24) rotate(-20.51)"/>
      <rect    x="55.94" y="65.39" width="4.89" height="4.69" transform="translate(-20.03 24.74) rotate(-20.51)"/>
      <rect    x="51.36" y="67.11" width="4.89" height="4.69" transform="translate(-20.92 23.25) rotate(-20.51)"/>
      <rect    x="46.77" y="68.82" width="4.89" height="4.69" transform="translate(-21.81 21.75) rotate(-20.51)"/>
      <rect    x="42.19" y="70.54" width="4.89" height="4.69" transform="translate(-22.7 20.25) rotate(-20.51)"/>
      <rect    x="37.61" y="72.25" width="4.89" height="4.69" transform="translate(-23.59 18.76) rotate(-20.51)"/>
      <rect    x="33.02" y="73.97" width="4.89" height="4.69" transform="translate(-24.48 17.26) rotate(-20.51)"/>
      <rect    x="28.44" y="75.68" width="4.89" height="4.69" transform="translate(-25.37 15.76) rotate(-20.51)"/>
      <rect    x="23.86" y="77.39" width="4.89" height="4.69" transform="translate(-26.27 14.27) rotate(-20.51)"/>
      <rect    x="63.46" y="57.58" width="4.89" height="4.69" transform="translate(-16.81 26.89) rotate(-20.51)"/>
      <rect    x="58.88" y="59.29" width="4.89" height="4.69" transform="translate(-17.7 25.39) rotate(-20.51)"/>
      <rect    x="54.3" y="61" width="4.89" height="4.69" transform="translate(-18.59 23.89) rotate(-20.51)"/>
      <rect    x="49.71" y="62.72" width="4.89" height="4.69" transform="translate(-19.49 22.39) rotate(-20.51)"/>
      <rect    x="45.13" y="64.43" width="4.89" height="4.69" transform="translate(-20.38 20.9) rotate(-20.51)"/>
      <rect    x="40.55" y="66.15" width="4.89" height="4.69" transform="translate(-21.27 19.4) rotate(-20.51)"/>
      <rect    x="35.96" y="67.86" width="4.89" height="4.69" transform="translate(-22.16 17.9) rotate(-20.51)"/>
      <rect    x="31.38" y="69.57" width="4.89" height="4.69" transform="translate(-23.05 16.41) rotate(-20.51)"/>
      <rect    x="26.8" y="71.29" width="4.89" height="4.69" transform="translate(-23.94 14.91) rotate(-20.51)"/>
      <rect    x="66.41" y="51.47" width="4.89" height="4.69" transform="translate(-14.49 27.53) rotate(-20.51)"/>
      <rect    x="61.82" y="53.18" width="4.89" height="4.69" transform="translate(-15.38 26.03) rotate(-20.51)"/>
      <rect    x="57.24" y="54.9" width="4.89" height="4.69" transform="translate(-16.27 24.53) rotate(-20.51)"/>
      <rect    x="52.66" y="56.61" width="4.89" height="4.69" transform="translate(-17.16 23.04) rotate(-20.51)"/>
      <rect    x="48.07" y="58.33" width="4.89" height="4.69" transform="translate(-18.05 21.54) rotate(-20.51)"/>
      <rect    x="43.49" y="60.04" width="4.89" height="4.69" transform="translate(-18.94 20.04) rotate(-20.51)"/>
      <rect    x="38.91" y="61.76" width="4.89" height="4.69" transform="translate(-19.83 18.55) rotate(-20.51)"/>
      <rect    x="34.32" y="63.47" width="4.89" height="4.69" transform="translate(-20.72 17.05) rotate(-20.51)"/>
      <rect    x="29.74" y="65.18" width="4.89" height="4.69" transform="translate(-21.62 15.55) rotate(-20.51)"/>
      <rect    x="64.76" y="47.08" width="4.89" height="4.69" transform="translate(-13.05 26.68) rotate(-20.51)"/>
      <rect    x="60.18" y="48.79" width="4.89" height="4.69" transform="translate(-13.95 25.18) rotate(-20.51)"/>
      <rect    x="55.6" y="50.51" width="4.89" height="4.69" transform="translate(-14.84 23.68) rotate(-20.51)"/>
      <rect    x="51.01" y="52.22" width="4.89" height="4.69" transform="translate(-15.73 22.18) rotate(-20.51)"/>
      <rect    x="46.43" y="53.94" width="4.89" height="4.69" transform="translate(-16.62 20.69) rotate(-20.51)"/>
      <rect    x="41.85" y="55.65" width="4.89" height="4.69" transform="translate(-17.51 19.19) rotate(-20.51)"/>
      <rect    x="37.26" y="57.37" width="4.89" height="4.69" transform="translate(-18.4 17.69) rotate(-20.51)"/>
      <rect    x="32.68" y="59.08" width="4.89" height="4.69" transform="translate(-19.29 16.2) rotate(-20.51)"/>
      <rect    x="67.71" y="40.98" width="4.89" height="4.69" transform="translate(-10.73 27.32) rotate(-20.51)"/>
      <rect    x="63.12" y="42.69" width="4.89" height="4.69" transform="translate(-11.62 25.82) rotate(-20.51)"/>
      <rect    x="58.54" y="44.4" width="4.89" height="4.69" transform="translate(-12.51 24.32) rotate(-20.51)"/>
      <rect    x="53.96" y="46.12" width="4.89" height="4.69" transform="translate(-13.4 22.83) rotate(-20.51)"/>
      <rect    x="49.37" y="47.83" width="4.89" height="4.69" transform="translate(-14.29 21.33) rotate(-20.51)"/>
      <rect    x="44.79" y="49.55" width="4.89" height="4.69" transform="translate(-15.18 19.83) rotate(-20.51)"/>
      <rect    x="40.2" y="51.26" width="4.89" height="4.69" transform="translate(-16.07 18.34) rotate(-20.51)"/>
      <rect    x="35.62" y="52.97" width="4.89" height="4.69" transform="translate(-16.97 16.84) rotate(-20.51)"/>
      <rect    x="70.65" y="34.87" width="4.89" height="4.69" transform="translate(-8.4 27.96) rotate(-20.51)"/>
      <rect    x="66.06" y="36.58" width="4.89" height="4.69" transform="translate(-9.3 26.47) rotate(-20.51)"/>
      <rect    x="61.48" y="38.3" width="4.89" height="4.69" transform="translate(-10.19 24.97) rotate(-20.51)"/>
      <rect    x="56.9" y="40.01" width="4.89" height="4.69" transform="translate(-11.08 23.47) rotate(-20.51)"/>
      <rect    x="52.31" y="41.73" width="4.89" height="4.69" transform="translate(-11.97 21.97) rotate(-20.51)"/>
      <rect    x="47.73" y="43.44" width="4.89" height="4.69" transform="translate(-12.86 20.48) rotate(-20.51)"/>
      <rect    x="43.15" y="45.16" width="4.89" height="4.69" transform="translate(-13.75 18.98) rotate(-20.51)"/>
      <rect    x="38.56" y="46.87" width="4.89" height="4.69" transform="translate(-14.64 17.48) rotate(-20.51)"/>
      <rect    x="69.01" y="30.48" width="4.89" height="4.69" transform="translate(-6.97 27.11) rotate(-20.51)"/>
      <rect    x="64.42" y="32.19" width="4.89" height="4.69" transform="translate(-7.86 25.61) rotate(-20.51)"/>
      <rect    x="59.84" y="33.91" width="4.89" height="4.69" transform="translate(-8.75 24.12) rotate(-20.51)"/>
      <rect    x="55.25" y="35.62" width="4.89" height="4.69" transform="translate(-9.64 22.62) rotate(-20.51)"/>
      <rect    x="50.67" y="37.34" width="4.89" height="4.69" transform="translate(-10.53 21.12) rotate(-20.51)"/>
      <rect    x="46.09" y="39.05" width="4.89" height="4.69" transform="translate(-11.43 19.62) rotate(-20.51)"/>
      <rect    x="41.5" y="40.77" width="4.89" height="4.69" transform="translate(-12.32 18.13) rotate(-20.51)"/>
      <rect    x="71.95" y="24.38" width="4.89" height="4.69" transform="translate(-4.65 27.75) rotate(-20.51)"/>
      <rect    x="67.36" y="26.09" width="4.89" height="4.69" transform="translate(-5.54 26.26) rotate(-20.51)"/>
      <rect    x="62.78" y="27.8" width="4.89" height="4.69" transform="translate(-6.43 24.76) rotate(-20.51)"/>
      <rect    x="58.2" y="29.52" width="4.89" height="4.69" transform="translate(-7.32 23.26) rotate(-20.51)"/>
      <rect    x="53.61" y="31.23" width="4.89" height="4.69" transform="translate(-8.21 21.76) rotate(-20.51)"/>
      <rect    x="49.03" y="32.95" width="4.89" height="4.69" transform="translate(-9.1 20.27) rotate(-20.51)"/>
      <rect    x="44.45" y="34.66" width="4.89" height="4.69" transform="translate(-9.99 18.77) rotate(-20.51)"/>
      <rect    x="74.89" y="18.27" width="4.89" height="4.69" transform="translate(-2.32 28.4) rotate(-20.51)"/>
      <rect    x="70.3" y="19.98" width="4.89" height="4.69" transform="translate(-3.21 26.9) rotate(-20.51)"/>
      <rect    x="65.72" y="21.7" width="4.89" height="4.69" transform="translate(-4.1 25.4) rotate(-20.51)"/>
      <rect    x="61.14" y="23.41" width="4.89" height="4.69" transform="translate(-4.99 23.91) rotate(-20.51)"/>
      <rect    x="56.55" y="25.13" width="4.89" height="4.69" transform="translate(-5.88 22.41) rotate(-20.51)"/>
      <rect    x="51.97" y="26.84" width="4.89" height="4.69" transform="translate(-6.78 20.91) rotate(-20.51)"/>
      <rect    x="47.39" y="28.56" width="4.89" height="4.69" transform="translate(-7.67 19.41) rotate(-20.51)"/>
      <rect    x="77.83" y="12.17" width="4.89" height="4.69" transform="translate(0 29.04) rotate(-20.51)"/>
      <rect    x="73.25" y="13.88" width="4.89" height="4.69" transform="translate(-.89 27.54) rotate(-20.51)"/>
      <rect    x="68.66" y="15.59" width="4.89" height="4.69" transform="translate(-1.78 26.05) rotate(-20.51)"/>
      <rect    x="64.08" y="17.31" width="4.89" height="4.69" transform="translate(-2.67 24.55) rotate(-20.51)"/>
      <rect    x="59.5" y="19.02" width="4.89" height="4.69" transform="translate(-3.56 23.05) rotate(-20.51)"/>
      <rect    x="54.91" y="20.74" width="4.89" height="4.69" transform="translate(-4.45 21.56) rotate(-20.51)"/>
      <rect    x="50.33" y="22.45" width="4.89" height="4.69" transform="translate(-5.34 20.06) rotate(-20.51)"/>
      <rect    x="76.19" y="7.78" width="4.89" height="4.69" transform="translate(1.44 28.19) rotate(-20.51)"/>
      <rect    x="71.6" y="9.49" width="4.89" height="4.69" transform="translate(.55 26.69) rotate(-20.51)"/>
      <rect    x="67.02" y="11.2" width="4.89" height="4.69" transform="translate(-.34 25.19) rotate(-20.51)"/>
      <rect    x="62.44" y="12.92" width="4.89" height="4.69" transform="translate(-1.24 23.7) rotate(-20.51)"/>
      <rect    x="57.85" y="14.63" width="4.89" height="4.69" transform="translate(-2.13 22.2) rotate(-20.51)"/>
      <rect    x="53.27" y="16.35" width="4.89" height="4.69" transform="translate(-3.02 20.7) rotate(-20.51)"/>
      <rect    x="74.55" y="3.38" width="4.89" height="4.69" transform="translate(2.87 27.33) rotate(-20.51)"/>
      <rect    x="69.96" y="5.1" width="4.89" height="4.69" transform="translate(1.98 25.84) rotate(-20.51)"/>
      <rect    x="65.38" y="6.81" width="4.89" height="4.69" transform="translate(1.09 24.34) rotate(-20.51)"/>
      <rect    x="60.8" y="8.53" width="4.89" height="4.69" transform="translate(.2 22.84) rotate(-20.51)"/>
      <rect    x="56.21" y="10.24" width="4.89" height="4.69" transform="translate(-.69 21.35) rotate(-20.51)"/>
      <rect    x="68.32" y=".71" width="4.89" height="4.69" transform="translate(3.41 24.98) rotate(-20.51)"/>
      <rect    x="63.74" y="2.42" width="4.89" height="4.69" transform="translate(2.52 23.49) rotate(-20.51)"/>
      <rect    x="59.15" y="4.14" width="4.89" height="4.69" transform="translate(1.63 21.99) rotate(-20.51)"/>
    </g>
  </g>
</svg>