<?xml version="1.0" encoding="UTF-8"?>
<svg id="Layer_2" xmlns="http://www.w3.org/2000/svg" viewBox="0 0 174.07 158.49">
  <g id="posters">
    <g>
      <rect    x="2.58" y="49.27" width="9.35" height="11.18" transform="translate(-5.06 .91) rotate(-5.33)"/>
      <rect    x="1.54" y="38.14" width="9.35" height="11.18" transform="translate(-4.04 .77) rotate(-5.33)"/>
      <rect    x=".5" y="27.01" width="9.35" height="11.18" transform="translate(-3.01 .62) rotate(-5.33)"/>
      <rect    x="13.97" y="70.66" width="9.35" height="11.18" transform="translate(-7 2.06) rotate(-5.33)"/>
      <rect    x="12.93" y="59.53" width="9.35" height="11.18" transform="translate(-5.97 1.92) rotate(-5.33)"/>
      <rect    x="11.89" y="48.4" width="9.35" height="11.18" transform="translate(-4.94 1.77) rotate(-5.33)"/>
      <rect    x="10.85" y="37.27" width="9.35" height="11.18" transform="translate(-3.91 1.63) rotate(-5.33)"/>
      <rect    x="25.36" y="92.04" width="9.35" height="11.18" transform="translate(-8.94 3.21) rotate(-5.33)"/>
      <rect    x="24.32" y="80.92" width="9.35" height="11.18" transform="translate(-7.91 3.07) rotate(-5.33)"/>
      <rect    x="23.28" y="69.79" width="9.35" height="11.18" transform="translate(-6.88 2.92) rotate(-5.33)"/>
      <rect    x="22.24" y="58.66" width="9.35" height="11.18" transform="translate(-5.85 2.78) rotate(-5.33)"/>
      <rect    x="21.2" y="47.53" width="9.35" height="11.18" transform="translate(-4.82 2.63) rotate(-5.33)"/>
      <rect    x="20.17" y="36.4" width="9.35" height="11.18" transform="translate(-3.79 2.49) rotate(-5.33)"/>
      <rect    x="17.05" y="3.02" width="9.35" height="11.18" transform="translate(-.71 2.06) rotate(-5.33)"/>
      <rect    x="35.71" y="102.3" width="9.35" height="11.18" transform="translate(-9.85 4.22) rotate(-5.33)"/>
      <rect    x="34.67" y="91.18" width="9.35" height="11.18" transform="translate(-8.82 4.07) rotate(-5.33)"/>
      <rect    x="33.63" y="80.05" width="9.35" height="11.18" transform="translate(-7.79 3.93) rotate(-5.33)"/>
      <rect    x="32.59" y="68.92" width="9.35" height="11.18" transform="translate(-6.76 3.78) rotate(-5.33)"/>
      <rect    x="31.56" y="57.79" width="9.35" height="11.18" transform="translate(-5.73 3.64) rotate(-5.33)"/>
      <rect    x="30.52" y="46.66" width="9.35" height="11.18" transform="translate(-4.7 3.5) rotate(-5.33)"/>
      <rect    x="27.4" y="13.28" width="9.35" height="11.18" transform="translate(-1.61 3.06) rotate(-5.33)"/>
      <rect    x="26.36" y="2.15" width="9.35" height="11.18" transform="translate(-.58 2.92) rotate(-5.33)"/>
      <rect    x="46.06" y="112.56" width="9.35" height="11.18" transform="translate(-10.76 5.22) rotate(-5.33)"/>
      <rect    x="45.02" y="101.44" width="9.35" height="11.18" transform="translate(-9.73 5.08) rotate(-5.33)"/>
      <rect    x="43.98" y="90.31" width="9.35" height="11.18" transform="translate(-8.7 4.93) rotate(-5.33)"/>
      <rect    x="42.95" y="79.18" width="9.35" height="11.18" transform="translate(-7.67 4.79) rotate(-5.33)"/>
      <rect    x="41.91" y="68.05" width="9.35" height="11.18" transform="translate(-6.64 4.65) rotate(-5.33)"/>
      <rect    x="40.87" y="56.92" width="9.35" height="11.18" transform="translate(-5.61 4.5) rotate(-5.33)"/>
      <rect    x="37.75" y="23.54" width="9.35" height="11.18" transform="translate(-2.52 4.07) rotate(-5.33)"/>
      <rect    x="36.72" y="12.41" width="9.35" height="11.18" transform="translate(-1.49 3.92) rotate(-5.33)"/>
      <rect    x="35.68" y="1.28" width="9.35" height="11.18" transform="translate(-.46 3.78) rotate(-5.33)"/>
      <rect    x="55.37" y="111.69" width="9.35" height="11.18" transform="translate(-10.64 6.09) rotate(-5.33)"/>
      <rect    x="54.34" y="100.57" width="9.35" height="11.18" transform="translate(-9.61 5.94) rotate(-5.33)"/>
      <rect    x="53.3" y="89.44" width="9.35" height="11.18" transform="translate(-8.58 5.8) rotate(-5.33)"/>
      <rect    x="52.26" y="78.31" width="9.35" height="11.18" transform="translate(-7.55 5.65) rotate(-5.33)"/>
      <rect    x="51.22" y="67.18" width="9.35" height="11.18" transform="translate(-6.52 5.51) rotate(-5.33)"/>
      <rect    x="48.11" y="33.8" width="9.35" height="11.18" transform="translate(-3.43 5.07) rotate(-5.33)"/>
      <rect    x="47.07" y="22.67" width="9.35" height="11.18" transform="translate(-2.4 4.93) rotate(-5.33)"/>
      <rect    x="46.03" y="11.54" width="9.35" height="11.18" transform="translate(-1.37 4.78) rotate(-5.33)"/>
      <rect    x="44.99" y=".41" width="9.35" height="11.18" transform="translate(-.34 4.64) rotate(-5.33)"/>
      <rect    x="65.73" y="121.95" width="9.35" height="11.18" transform="translate(-11.54 7.09) rotate(-5.33)"/>
      <rect    x="64.69" y="110.83" width="9.35" height="11.18" transform="translate(-10.51 6.95) rotate(-5.33)"/>
      <rect    x="63.65" y="99.7" width="9.35" height="11.18" transform="translate(-9.48 6.8) rotate(-5.33)"/>
      <rect    x="62.61" y="88.57" width="9.35" height="11.18" transform="translate(-8.46 6.66) rotate(-5.33)"/>
      <rect    x="61.57" y="77.44" width="9.35" height="11.18" transform="translate(-7.43 6.51) rotate(-5.33)"/>
      <rect    x="60.54" y="66.31" width="9.35" height="11.18" transform="translate(-6.4 6.37) rotate(-5.33)"/>
      <rect    x="57.42" y="32.93" width="9.35" height="11.18" transform="translate(-3.31 5.94) rotate(-5.33)"/>
      <rect    x="56.38" y="21.8" width="9.35" height="11.18" transform="translate(-2.28 5.79) rotate(-5.33)"/>
      <rect    x="55.34" y="10.67" width="9.35" height="11.18" transform="translate(-1.25 5.65) rotate(-5.33)"/>
      <rect    x="75.04" y="121.09" width="9.35" height="11.18" transform="translate(-11.42 7.95) rotate(-5.33)"/>
      <rect    x="74" y="109.96" width="9.35" height="11.18" transform="translate(-10.39 7.81) rotate(-5.33)"/>
      <rect    x="72.96" y="98.83" width="9.35" height="11.18" transform="translate(-9.36 7.66) rotate(-5.33)"/>
      <rect    x="71.93" y="87.7" width="9.35" height="11.18" transform="translate(-8.33 7.52) rotate(-5.33)"/>
      <rect    x="70.89" y="76.57" width="9.35" height="11.18" transform="translate(-7.31 7.37) rotate(-5.33)"/>
      <rect    x="69.85" y="65.44" width="9.35" height="11.18" transform="translate(-6.28 7.23) rotate(-5.33)"/>
      <rect    x="68.81" y="54.31" width="9.35" height="11.18" transform="translate(-5.25 7.09) rotate(-5.33)"/>
      <rect    x="67.77" y="43.19" width="9.35" height="11.18" transform="translate(-4.22 6.94) rotate(-5.33)"/>
      <rect    x="66.74" y="32.06" width="9.35" height="11.18" transform="translate(-3.19 6.8) rotate(-5.33)"/>
      <rect    x="65.7" y="20.93" width="9.35" height="11.18" transform="translate(-2.16 6.65) rotate(-5.33)"/>
      <rect    x="64.66" y="9.8" width="9.35" height="11.18" transform="translate(-1.13 6.51) rotate(-5.33)"/>
      <rect    x="84.36" y="120.22" width="9.35" height="11.18" transform="translate(-11.3 8.81) rotate(-5.33)"/>
      <rect    x="83.32" y="109.09" width="9.35" height="11.18" transform="translate(-10.27 8.67) rotate(-5.33)"/>
      <rect    x="82.28" y="97.96" width="9.35" height="11.18" transform="translate(-9.24 8.53) rotate(-5.33)"/>
      <rect    x="81.24" y="86.83" width="9.35" height="11.18" transform="translate(-8.21 8.38) rotate(-5.33)"/>
      <rect    x="80.2" y="75.7" width="9.35" height="11.18" transform="translate(-7.18 8.24) rotate(-5.33)"/>
      <rect    x="79.16" y="64.57" width="9.35" height="11.18" transform="translate(-6.16 8.09) rotate(-5.33)"/>
      <rect    x="78.13" y="53.45" width="9.35" height="11.18" transform="translate(-5.13 7.95) rotate(-5.33)"/>
      <rect    x="77.09" y="42.32" width="9.35" height="11.18" transform="translate(-4.1 7.8) rotate(-5.33)"/>
      <rect    x="76.05" y="31.19" width="9.35" height="11.18" transform="translate(-3.07 7.66) rotate(-5.33)"/>
      <rect    x="75.01" y="20.06" width="9.35" height="11.18" transform="translate(-2.04 7.51) rotate(-5.33)"/>
      <rect    x="93.67" y="119.35" width="9.35" height="11.18" transform="translate(-11.18 9.68) rotate(-5.33)"/>
      <rect    x="92.63" y="108.22" width="9.35" height="11.18" transform="translate(-10.15 9.53) rotate(-5.33)"/>
      <rect    x="91.59" y="97.09" width="9.35" height="11.18" transform="translate(-9.12 9.39) rotate(-5.33)"/>
      <rect    x="90.55" y="85.96" width="9.35" height="11.18" transform="translate(-8.09 9.24) rotate(-5.33)"/>
      <rect    x="89.52" y="74.83" width="9.35" height="11.18" transform="translate(-7.06 9.1) rotate(-5.33)"/>
      <rect    x="88.48" y="63.7" width="9.35" height="11.18" transform="translate(-6.03 8.95) rotate(-5.33)"/>
      <rect    x="87.44" y="52.58" width="9.35" height="11.18" transform="translate(-5 8.81) rotate(-5.33)"/>
      <rect    x="86.4" y="41.45" width="9.35" height="11.18" transform="translate(-3.98 8.66) rotate(-5.33)"/>
      <rect    x="85.36" y="30.32" width="9.35" height="11.18" transform="translate(-2.95 8.52) rotate(-5.33)"/>
      <rect    x="84.32" y="19.19" width="9.35" height="11.18" transform="translate(-1.92 8.37) rotate(-5.33)"/>
      <rect    x="101.94" y="107.35" width="9.35" height="11.18" transform="translate(-10.03 10.39) rotate(-5.33)"/>
      <rect    x="100.91" y="96.22" width="9.35" height="11.18" transform="translate(-9 10.25) rotate(-5.33)"/>
      <rect    x="99.87" y="85.09" width="9.35" height="11.18" transform="translate(-7.97 10.1) rotate(-5.33)"/>
      <rect    x="98.83" y="73.96" width="9.35" height="11.18" transform="translate(-6.94 9.96) rotate(-5.33)"/>
      <rect    x="97.79" y="62.84" width="9.35" height="11.18" transform="translate(-5.91 9.81) rotate(-5.33)"/>
      <rect    x="96.75" y="51.71" width="9.35" height="11.18" transform="translate(-4.88 9.67) rotate(-5.33)"/>
      <rect    x="95.72" y="40.58" width="9.35" height="11.18" transform="translate(-3.85 9.53) rotate(-5.33)"/>
      <rect    x="94.68" y="29.45" width="9.35" height="11.18" transform="translate(-2.83 9.38) rotate(-5.33)"/>
      <rect    x="93.64" y="18.32" width="9.35" height="11.18" transform="translate(-1.8 9.24) rotate(-5.33)"/>
      <rect    x="109.38" y="136.65" width="9.35" height="11.18" transform="translate(-12.72 11.21) rotate(-5.33)"/>
      <rect    x="110.22" y="95.35" width="9.35" height="11.18" transform="translate(-8.88 11.11) rotate(-5.33)"/>
      <rect    x="109.18" y="84.22" width="9.35" height="11.18" transform="translate(-7.85 10.97) rotate(-5.33)"/>
      <rect    x="108.14" y="73.1" width="9.35" height="11.18" transform="translate(-6.82 10.82) rotate(-5.33)"/>
      <rect    x="107.11" y="61.97" width="9.35" height="11.18" transform="translate(-5.79 10.68) rotate(-5.33)"/>
      <rect    x="106.07" y="50.84" width="9.35" height="11.18" transform="translate(-4.76 10.53) rotate(-5.33)"/>
      <rect    x="105.03" y="39.71" width="9.35" height="11.18" transform="translate(-3.73 10.39) rotate(-5.33)"/>
      <rect    x="103.99" y="28.58" width="9.35" height="11.18" transform="translate(-2.7 10.24) rotate(-5.33)"/>
      <rect    x="119.73" y="146.91" width="9.35" height="11.18" transform="translate(-13.63 12.22) rotate(-5.33)"/>
      <rect    x="118.69" y="135.78" width="9.35" height="11.18" transform="translate(-12.6 12.07) rotate(-5.33)"/>
      <rect    x="117.65" y="124.65" width="9.35" height="11.18" transform="translate(-11.57 11.93) rotate(-5.33)"/>
      <line    x1="126.47" y1="124.24" x2="125.43" y2="113.11"/>
      <rect    x="118.5" y="83.35" width="9.35" height="11.18" transform="translate(-7.73 11.83) rotate(-5.33)"/>
      <rect    x="117.46" y="72.23" width="9.35" height="11.18" transform="translate(-6.7 11.68) rotate(-5.33)"/>
      <rect    x="116.42" y="61.1" width="9.35" height="11.18" transform="translate(-5.67 11.54) rotate(-5.33)"/>
      <rect    x="115.38" y="49.97" width="9.35" height="11.18" transform="translate(-4.64 11.39) rotate(-5.33)"/>
      <rect    x="114.34" y="38.84" width="9.35" height="11.18" transform="translate(-3.61 11.25) rotate(-5.33)"/>
      <rect    x="129.04" y="146.04" width="9.35" height="11.18" transform="translate(-13.51 13.08) rotate(-5.33)"/>
      <rect    x="128" y="134.91" width="9.35" height="11.18" transform="translate(-12.48 12.93) rotate(-5.33)"/>
      <rect    x="126.97" y="123.78" width="9.35" height="11.18" transform="translate(-11.45 12.79) rotate(-5.33)"/>
      <rect    x="125.93" y="112.65" width="9.35" height="11.18" transform="translate(-10.42 12.64) rotate(-5.33)"/>
      <rect    x="126.77" y="71.36" width="9.35" height="11.18" transform="translate(-6.58 12.54) rotate(-5.33)"/>
      <rect    x="125.73" y="60.23" width="9.35" height="11.18" transform="translate(-5.55 12.4) rotate(-5.33)"/>
      <rect    x="138.36" y="145.17" width="9.35" height="11.18" transform="translate(-13.39 13.94) rotate(-5.33)"/>
      <rect    x="137.32" y="134.04" width="9.35" height="11.18" transform="translate(-12.36 13.79) rotate(-5.33)"/>
      <rect    x="136.28" y="122.91" width="9.35" height="11.18" transform="translate(-11.33 13.65) rotate(-5.33)"/>
      <rect    x="135.24" y="111.78" width="9.35" height="11.18" transform="translate(-10.3 13.5) rotate(-5.33)"/>
      <rect    x="134.2" y="100.65" width="9.35" height="11.18" transform="translate(-9.27 13.36) rotate(-5.33)"/>
      <rect    x="146.63" y="133.17" width="9.35" height="11.18" transform="translate(-12.24 14.66) rotate(-5.33)"/>
      <rect    x="145.59" y="122.04" width="9.35" height="11.18" transform="translate(-11.21 14.51) rotate(-5.33)"/>
      <rect    x="144.56" y="110.91" width="9.35" height="11.18" transform="translate(-10.18 14.37) rotate(-5.33)"/>
      <rect    x="143.52" y="99.79" width="9.35" height="11.18" transform="translate(-9.15 14.22) rotate(-5.33)"/>
      <rect    x="142.48" y="88.66" width="9.35" height="11.18" transform="translate(-8.12 14.08) rotate(-5.33)"/>
      <rect    x="154.91" y="121.17" width="9.35" height="11.18" transform="translate(-11.09 15.37) rotate(-5.33)"/>
      <rect    x="153.87" y="110.04" width="9.35" height="11.18" transform="translate(-10.06 15.23) rotate(-5.33)"/>
      <rect    x="152.83" y="98.92" width="9.35" height="11.18" transform="translate(-9.03 15.08) rotate(-5.33)"/>
      <rect    x="151.79" y="87.79" width="9.35" height="11.18" transform="translate(-8 14.94) rotate(-5.33)"/>
      <rect    x="164.22" y="120.3" width="9.35" height="11.18" transform="translate(-10.96 16.23) rotate(-5.33)"/>
      <rect    x="163.18" y="109.18" width="9.35" height="11.18" transform="translate(-9.93 16.09) rotate(-5.33)"/>
      <rect    x="162.14" y="98.05" width="9.35" height="11.18" transform="translate(-8.91 15.94) rotate(-5.33)"/>
    </g>
  </g>
</svg>