<?xml version="1.0" encoding="UTF-8"?>
<svg id="Layer_2" data-name="Layer 2" xmlns="http://www.w3.org/2000/svg" viewBox="0 0 215.65 194.4">
  <defs>
    <style>
      .cls-1 {
        fill: #0a1f2c;
      }
    </style>
  </defs>
  <g id="cover_page" data-name="cover page">
    <polygon class="cls-1" points="204.3 86.4 192.95 86.4 192.95 75.6 181.6 75.6 170.25 75.6 170.25 64.8 158.9 64.8 147.55 64.8 147.55 54 136.2 54 124.85 54 124.85 43.2 113.5 43.2 102.15 43.2 102.15 32.4 90.8 32.4 79.45 32.4 79.45 21.6 68.1 21.6 56.75 21.6 56.75 10.8 45.4 10.8 34.05 10.8 34.05 0 22.7 0 11.35 0 0 0 0 10.8 0 21.6 0 32.4 0 43.2 0 54 0 64.8 0 75.6 0 86.4 0 97.2 0 108 0 118.8 0 129.6 0 140.4 0 151.2 0 162 0 172.8 0 183.6 0 194.4 11.35 194.4 22.7 194.4 34.05 194.4 34.05 183.6 45.4 183.6 56.75 183.6 56.75 172.8 68.1 172.8 79.45 172.8 79.45 162 90.8 162 102.15 162 102.15 151.2 113.5 151.2 124.85 151.2 124.85 140.4 136.2 140.4 147.55 140.4 147.55 129.6 158.9 129.6 170.25 129.6 170.25 118.8 181.6 118.8 192.95 118.8 192.95 108 204.3 108 215.65 108 215.65 97.2 215.65 86.4 204.3 86.4"/>
  </g>
</svg>