<?xml version="1.0" encoding="UTF-8"?>
<svg id="Layer_2" xmlns="http://www.w3.org/2000/svg" xmlns:xlink="http://www.w3.org/1999/xlink" viewBox="0 0 502.06 306.05">
  <defs>
    <style>
      .cls-1, .cls-2 {
        fill: #231f20;
      }

      .cls-3 {
        fill: #fff;
      }

      .cls-2 {
        stroke: #fff;
        stroke-miterlimit: 10;
        stroke-width: 5.08px;
      }

      .cls-4 {
        clip-path: url(#clippath);
      }
    </style>
    <clipPath id="clippath">
      <path class="cls-1" d="M497.99,79.55c-3.78-4.19-6.27-4.13-11.89-4.13h-26.67c-5.62,0-11.08,3.49-14.96,7.59-.08.08-.15.18-.23.26-.42-3.47-1.67-8.94-4.35-11.46-2.3-2.17-4.03-2.14-6.93-3.06,2.65-3.06,6.28-8.2,7.08-9.28,3.37-4.58,2.75-11.11,2.75-16.5l.07-7.07c0-5.38.57-12.83-2.03-15.52-3.8-3.93-10.82-3.87-16.15-3.87h-5.78c-.81-2.49-1.64-5.53-3.03-7.26-3.56-4.39-9.11-6.36-14.73-6.36l-23.39.16c-1.65,0-3.3.2-4.9.59-2.55.63-4.96,1.77-7.07,3.33-1.08.8-1.97,1.75-2.95,2.64-1.2,1.08-2.44,2.11-3.63,3.2-1.17,1.07-1.96,1.88-3.1,2.98-.57.55-1.82,1.63-2.14,1.83-.35.22-.45.06-.85-.13-2.66-1.27-6.37-.98-9.32-.98,0,0-16.82.1-16.82.1h-20.37l-36.67-.1c-3.41,0-6.8.86-9.79,2.51-1.32.73-2.56,1.62-3.69,2.63-1.31,1.17-4.03,4.02-4.41,4.39-.77.74-1.34,1.46-2.06,2.24-1.04,1.14-1.89,2.3-2.96,3.42q-.23.24-.5-.24c-.42-.71-1.97-4.59-4.11-7.71-.94-1.37-2.25-2.38-3.6-3.35-3.41-2.45-7.53-3.8-11.73-3.8l-51.51-.09c-1.73,0-3.47.23-5.14.67-3.01.81-5.81,2.33-8.16,4.38-2.57,2.24-5.26,4.27-7.69,6.7-1.08,1.08-2.14,2.18-3.22,3.27-.55.56-1.1,1.11-1.66,1.66-.21.21-1.19,1.14-1.19,1.42v-11.2c0-5.36.25-14.45-3.77-18.22-3.26-3.06-8.77-2.19-14.12-2.19h-10.4c-10.99.09-24.77-.11-32.54.05h-33.4c-5.62,0-14.55,3.4-18.04,6.57-1.78,1.62-6.2,6.35-8.77,9.82-2,2.7-7.63,12.87-8.77,14.41-2.65,3.59-10.97,18.71-13.15,21.66-3.14,4.25-5.55,10.07-5.55,15.24v73.86c0,5.45,2.12,10.57,5.96,14.4,2.97,2.97,6.71,4.9,10.76,5.63-.14.95-.23,1.92-.23,2.89v73.86c0,5.44,2.12,10.55,5.95,14.39,3.85,3.85,8.97,5.98,14.41,5.98h60.4c5.18,0,10.14-2,14-5.64,1.15-1.08,2.13-2.28,2.98-3.56.85,1.27,1.83,2.48,2.97,3.56,3.84,3.63,8.82,5.64,14,5.64h46.94c3.53,0,7.02-.95,10.08-2.71,3.64-2.1,5.74-5.16,8.24-8.46,1.43-1.88,2.86-3.76,4.18-5.72,1.21-1.8,10.39-14.68,10.55-15.29,0,.01,1.32,4.66,1.33,4.67.76,2.37,1.67,4.7,2.72,6.96,2.09,4.52,4.74,8.79,7.87,12.66,3.92,4.86,9.72,7.89,16.02,7.89h20.13c6.19,0,12.12-2.97,15.95-7.76,4.49-5.62,8.63-11.5,12.74-17.4.01,0,.02,0,.03,0-.57,1.22,6.65,9.32,7.53,10.34,6.06,7.06,14.48,14.83,24.4,14.83h46.93c9.33,0,16.83-6.85,21.94-14.03,1.14-1.61,2.19-3.28,3.13-5.02.65-1.21,1-3.07,2-4.03-.02.9-.01,1.81-.01,2.72,0,5.44,2.12,10.55,5.96,14.4,3.85,3.85,8.96,5.96,14.4,5.96h19.89c5.16,0,10.82-2.03,14.34-5.94,4.33-4.8,39.09-45.17,40.21-47.68,1.7-2.24,3.32-4.53,4.74-6.83,3.02-4.87,5.95-9.07,5.95-15.1v-87.32c0-5.18.68-17-1.42-19.34Z"/>
    </clipPath>
  </defs>
  <g id="styleguide">
    <g>
      <g>
        <g>
          <path class="cls-1" d="M497.99,79.55c-3.78-4.19-6.27-4.13-11.89-4.13h-26.67c-5.62,0-11.08,3.49-14.96,7.59-.08.08-.15.18-.23.26-.42-3.47-1.67-8.94-4.35-11.46-2.3-2.17-4.03-2.14-6.93-3.06,2.65-3.06,6.28-8.2,7.08-9.28,3.37-4.58,2.75-11.11,2.75-16.5l.07-7.07c0-5.38.57-12.83-2.03-15.52-3.8-3.93-10.82-3.87-16.15-3.87h-5.78c-.81-2.49-1.64-5.53-3.03-7.26-3.56-4.39-9.11-6.36-14.73-6.36l-23.39.16c-1.65,0-3.3.2-4.9.59-2.55.63-4.96,1.77-7.07,3.33-1.08.8-1.97,1.75-2.95,2.64-1.2,1.08-2.44,2.11-3.63,3.2-1.17,1.07-1.96,1.88-3.1,2.98-.57.55-1.82,1.63-2.14,1.83-.35.22-.45.06-.85-.13-2.66-1.27-6.37-.98-9.32-.98,0,0-16.82.1-16.82.1h-20.37l-36.67-.1c-3.41,0-6.8.86-9.79,2.51-1.32.73-2.56,1.62-3.69,2.63-1.31,1.17-4.03,4.02-4.41,4.39-.77.74-1.34,1.46-2.06,2.24-1.04,1.14-1.89,2.3-2.96,3.42q-.23.24-.5-.24c-.42-.71-1.97-4.59-4.11-7.71-.94-1.37-2.25-2.38-3.6-3.35-3.41-2.45-7.53-3.8-11.73-3.8l-51.51-.09c-1.73,0-3.47.23-5.14.67-3.01.81-5.81,2.33-8.16,4.38-2.57,2.24-5.26,4.27-7.69,6.7-1.08,1.08-2.14,2.18-3.22,3.27-.55.56-1.1,1.11-1.66,1.66-.21.21-1.19,1.14-1.19,1.42v-11.2c0-5.36.25-14.45-3.77-18.22-3.26-3.06-8.77-2.19-14.12-2.19h-10.4c-10.99.09-24.77-.11-32.54.05h-33.4c-5.62,0-14.55,3.4-18.04,6.57-1.78,1.62-6.2,6.35-8.77,9.82-2,2.7-7.63,12.87-8.77,14.41-2.65,3.59-10.97,18.71-13.15,21.66-3.14,4.25-5.55,10.07-5.55,15.24v73.86c0,5.45,2.12,10.57,5.96,14.4,2.97,2.97,6.71,4.9,10.76,5.63-.14.95-.23,1.92-.23,2.89v73.86c0,5.44,2.12,10.55,5.95,14.39,3.85,3.85,8.97,5.98,14.41,5.98h60.4c5.18,0,10.14-2,14-5.64,1.15-1.08,2.13-2.28,2.98-3.56.85,1.27,1.83,2.48,2.97,3.56,3.84,3.63,8.82,5.64,14,5.64h46.94c3.53,0,7.02-.95,10.08-2.71,3.64-2.1,5.74-5.16,8.24-8.46,1.43-1.88,2.86-3.76,4.18-5.72,1.21-1.8,10.39-14.68,10.55-15.29,0,.01,1.32,4.66,1.33,4.67.76,2.37,1.67,4.7,2.72,6.96,2.09,4.52,4.74,8.79,7.87,12.66,3.92,4.86,9.72,7.89,16.02,7.89h20.13c6.19,0,12.12-2.97,15.95-7.76,4.49-5.62,8.63-11.5,12.74-17.4.01,0,.02,0,.03,0-.57,1.22,6.65,9.32,7.53,10.34,6.06,7.06,14.48,14.83,24.4,14.83h46.93c9.33,0,16.83-6.85,21.94-14.03,1.14-1.61,2.19-3.28,3.13-5.02.65-1.21,1-3.07,2-4.03-.02.9-.01,1.81-.01,2.72,0,5.44,2.12,10.55,5.96,14.4,3.85,3.85,8.96,5.96,14.4,5.96h19.89c5.16,0,10.82-2.03,14.34-5.94,4.33-4.8,39.09-45.17,40.21-47.68,1.7-2.24,3.32-4.53,4.74-6.83,3.02-4.87,5.95-9.07,5.95-15.1v-87.32c0-5.18.68-17-1.42-19.34Z"/>
          <g class="cls-4">
            <g>
              <path class="cls-1" d="M220.48,213.98c-3.05,1.76-6.55,2.71-10.08,2.71h-46.94c-5.19,0-10.16-2-14-5.64-1.15-1.08-2.12-2.29-2.97-3.56-.85,1.28-1.84,2.48-2.98,3.56-3.86,3.64-8.83,5.64-14,5.64h-60.4c-5.45,0-10.57-2.12-14.41-5.98-3.83-3.83-5.95-8.95-5.95-14.39v-73.86c0-.98.09-1.94.23-2.89-4.05-.73-7.78-2.65-10.76-5.63-3.84-3.83-5.96-8.95-5.96-14.4V25.69c0-5.18,2.41-11,5.55-15.24,2.18-2.96,10.5-18.08,13.15-21.66.21-.29.59-.89,1.07-1.68-.46.32-.88.65-1.23.97-1.78,1.62-6.2,6.35-8.77,9.82-2,2.7-10.72,9.44-11.85,10.97-2.65,3.59-10.97,18.71-13.15,21.66-3.14,4.25-2.46,13.51-2.46,18.68v73.86c0,5.45,2.12,10.57,5.96,14.4,2.97,2.97,6.71,4.9,10.76,5.63-.14.95-.23,1.92-.23,2.89v73.86c0,5.44,2.12,10.55,5.95,14.39,3.85,3.85,8.97,5.98,14.41,5.98h60.4c5.18,0,10.14-2,14-5.64,1.15-1.08,2.13-2.28,2.98-3.56.85,1.27,1.83,2.48,2.97,3.56,3.84,3.63,8.82,5.64,14,5.64h46.94c3.53,0,7.02-.95,10.08-2.71,3.64-2.1,5.74-5.17,8.24-8.46,1.43-1.88,2.86-3.76,4.18-5.72.78-1.17,4.91-6.97,7.76-11.09-.75.64-1.57,1.22-2.48,1.75Z"/>
              <path class="cls-1" d="M466.42,216.69h-19.89c-5.44,0-10.55-2.12-14.4-5.96-3.85-3.85-5.96-8.96-5.96-14.4,0-.91-.01-1.82,0-2.72-.99.96-1.34,2.82-2,4.03-.94,1.74-1.98,3.41-3.13,5.02-5.12,7.18-12.61,14.03-21.94,14.03h-46.93c-9.92,0-18.33-7.78-24.4-14.83-.88-1.02-8.1-9.12-7.53-10.34-.01,0-.02,0-.03,0-4.11,5.9-8.25,11.79-12.74,17.4-3.83,4.79-9.76,7.76-15.95,7.76h-20.13c-6.31,0-12.1-3.03-16.02-7.89-3.13-3.88-5.78-8.14-7.87-12.66-1.05-2.26-1.95-4.58-2.72-6.96,0-.01-1.32-4.66-1.33-4.67-.15.61-9.34,13.48-10.55,15.29-1.32,1.96-2.75,3.84-4.18,5.72-.92,1.21-1.79,2.39-2.69,3.5.39,1.37,1.04,3.67,1.05,3.68.76,2.37,1.67,4.7,2.72,6.96,2.09,4.52,4.74,8.79,7.87,12.66,3.92,4.86,9.72,7.89,16.02,7.89h20.13c6.19,0,12.12-2.97,15.95-7.76,4.49-5.62,8.63-11.5,12.74-17.4.01,0,.02,0,.03,0-.57,1.22,6.65,9.32,7.53,10.34,6.06,7.06,14.48,14.83,24.4,14.83h46.93c9.33,0,16.83-6.85,21.94-14.03,1.14-1.61,2.19-3.28,3.13-5.02.65-1.21,1-3.07,2-4.03-.02.91-.01,1.82-.01,2.72,0,5.44,2.12,10.55,5.96,14.4,3.85,3.85,8.96,5.96,14.4,5.96,0,0,26.76.3,19.89,0-1.73-.07,22.16-3.13,23.97-6.73,1.22-2.41,6.55-10.55,12.44-19.39-6.88,1.66-15.49,2.6-18.71,2.6Z"/>
            </g>
          </g>
        </g>
        <path class="cls-2" d="M493.46,200.95c3.02-4.87,5.95-9.07,5.95-15.1v-87.32c0-5.18.68-17-1.42-19.34-3.78-4.19-6.27-4.13-11.89-4.13h-26.67c-5.62,0-11.08,3.49-14.96,7.59-.08.08-.15.18-.23.26-.42-3.47-1.67-8.94-4.35-11.46-2.3-2.17-4.03-2.14-6.93-3.06,2.65-3.06,6.28-8.2,7.08-9.28,3.37-4.58,2.75-11.11,2.75-16.5l.07-7.07c0-5.38.57-12.83-2.03-15.52-3.8-3.93-10.82-3.87-16.15-3.87h-5.78c-.81-2.49-1.64-5.53-3.03-7.26-3.56-4.39-9.11-6.36-14.73-6.36l-23.39.16c-1.65,0-3.3.2-4.9.59-2.55.63-4.96,1.77-7.07,3.33-1.08.8-1.97,1.75-2.95,2.64-1.2,1.08-2.44,2.11-3.63,3.2-1.17,1.07-1.96,1.88-3.1,2.98-.57.55-1.82,1.63-2.14,1.83-.35.22-.45.06-.85-.13-2.66-1.27-6.37-.98-9.32-.98,0,0-16.82.1-16.82.1h-20.37l-36.67-.1c-3.41,0-6.8.86-9.79,2.51-1.32.73-2.56,1.62-3.69,2.63-1.31,1.17-4.02,4.02-4.41,4.39-.77.74-1.34,1.46-2.06,2.24-1.04,1.14-1.89,2.3-2.96,3.42q-.23.24-.5-.24c-.3-.51-1.18-2.64-2.44-4.95-1.02-1.89-3.21-4.57-4.92-5.86-3.47-2.61-7.74-4.06-12.08-4.06l-51.51-.09c-1.73,0-3.47.23-5.14.67-3.01.81-5.81,2.33-8.16,4.38-2.57,2.24-5.26,4.27-7.69,6.7-1.08,1.08-2.14,2.18-3.22,3.27-.55.56-1.1,1.11-1.66,1.66-.21.21-1.19,1.14-1.19,1.42v-11.2c0-5.36.25-14.45-3.77-18.22-3.26-3.06-8.77-2.19-14.12-2.19h-10.4c-10.98.09-24.77-.11-32.54.05h-33.4c-4.17,0-10.15,1.87-14.39,4.13-.89,1.47-1.62,2.64-2.08,3.26-3.14,4.25-5.55,10.07-5.55,15.24v73.86c0,5.45,2.12,10.57,5.96,14.4,2.97,2.97,6.71,4.9,10.76,5.63-.14.95-.23,1.92-.23,2.89v73.86c0,5.44,2.12,10.55,5.95,14.39,3.85,3.85,8.97,5.98,14.41,5.98h60.4c5.18,0,10.14-2,14-5.64,1.15-1.08,2.13-2.28,2.98-3.56.85,1.27,1.83,2.48,2.97,3.56,3.84,3.63,8.82,5.64,14,5.64h46.94c3.53,0,7.02-.95,10.08-2.71.91-.53,1.73-1.11,2.48-1.75,1.55-2.24,4.84-5.5,5.76-6.71,1.43-1.88,2.86-3.76,4.18-5.72,1.01-1.51,7.59-10.75,9.81-14.1.3-.45.97-.34,1.12.17.39,1.38.94,3.3.94,3.3.76,2.37,1.67,4.7,2.72,6.96,2.09,4.52,4.74,8.79,7.87,12.66,3.92,4.86,9.72,7.89,16.02,7.89h20.13c6.19,0,12.12-2.97,15.95-7.76,4.49-5.62,8.63-11.5,12.75-17.4.01,0,.02,0,.03,0,0,0,6.65,9.32,7.53,10.34,6.06,7.06,14.48,14.83,24.4,14.83h46.93c9.33,0,16.83-6.85,21.94-14.03,1.14-1.61,2.19-3.28,3.13-5.02.32-.59.57-1.35.85-2.07.24-.6,1.13-.44,1.13.21,0,.02,0,.04,0,.06.02,5.43,1.96,10.75,5.73,14.65s9.08,6.2,14.63,6.2h19.89c3.03,0,10.83-.84,17.48-2.31,2.75-3.35,4.58-5.68,4.82-6.23,1.7-2.24,3.32-4.53,4.74-6.83Z"/>
      </g>
      <path class="cls-1" d="M454.19,242.69c-2.31.67-25.76,6.27-25.76,6.27-2.35,0-4.63-.69-6.78-1.94h-26.77c0-2.06,8.38-11.66,7.76-13.28-3.76,4.53-16.42,6.29-21.23,6.29l-47.33,8.93c-6.45,0-12.25-5.44-17.2-12.43h-5.83c-3.51,0-6.35,4.7-6.35,10.49h-3.85v-5.22c-.12-.68-.03-2.11-.63-3.23-.84-1.56-2.2-1.85-2.64-2.05-2.8,0,5.04-7.41,2.24-7.41-3.84,7.68-25.55,10.91-31.64,10.91l-14.89,8.93c-3.29,0-6.43-1.37-9.25-3.81-.01.23-.02.47-.02.7v1.16h-21.67l-.31-7.35s-7.9-14.23-8.45-14.23c-1.53,3.07-13.92,15.01-16.17,17.15-3.05,2.91-1.58,6.38-5.11,6.38h-46.94c-2.31,0-4.56-.69-6.7-1.94h-19.19c-2.14,1.25-5.72,2.52-8.02,2.52l-60.44-.58c-5.45,0-10.57-3.51-14.41-9.87-.5-.82-.96-1.67-1.4-2.56h-15.48c-.21.01-1.65.15-2.57,2.14-.58,1.26-.65,2.6-.66,3.13v59.1c.1.63.3,1.5.69,2.37.87,1.95,2.1,2.59,2.54,2.78h218.61c2.03,0,8.68,0,8.87,0h206.5c.38-.15,1.29-.6,2.09-1.95.73-1.23,1-2.57,1.1-3.2v-40.36c0-5.82.41-15.94-2.71-17.85Z"/>
      <g>
        <path class="cls-3" d="M85,180.39c-.69-.69-1.03-1.52-1.03-2.49v-73.86c0-.89.34-1.7,1.03-2.43.69-.73,1.52-1.09,2.49-1.09h19.89c.97,0,1.8.36,2.49,1.09.69.73,1.03,1.54,1.03,2.43v60.4c0,.97.36,1.8,1.09,2.49.73.69,1.54,1.03,2.43,1.03h33.47c.89,0,1.7.34,2.43,1.03.73.69,1.09,1.52,1.09,2.49v6.43c0,.97-.36,1.8-1.09,2.49-.73.69-1.54,1.03-2.43,1.03h-60.4c-.97,0-1.8-.34-2.49-1.03Z"/>
        <path class="cls-3" d="M179.42,180.39c-.73-.69-1.09-1.52-1.09-2.49v-6.43c0-.97-.34-1.8-1.03-2.49-.69-.69-1.52-1.03-2.49-1.03h-6.43c-.97,0-1.8-.34-2.49-1.03-.69-.69-1.03-1.52-1.03-2.5v-33.57c0-.89.34-1.68,1.03-2.37.69-.69,1.52-1.03,2.49-1.03h6.43c.97,0,1.8-.36,2.49-1.08.69-.72,1.03-1.52,1.03-2.4v-6.49c0-.88.36-1.68,1.09-2.4.73-.72,1.54-1.08,2.43-1.08h46.94c.89,0,1.7.36,2.43,1.08.73.72,1.09,1.52,1.09,2.4v6.49c0,.88.34,1.68,1.03,2.4.69.72,1.52,1.08,2.49,1.08h6.43c.89,0,1.7.35,2.43,1.04s1.09,1.48,1.09,2.37v20.1c0,.89-.36,1.71-1.09,2.44s-1.54,1.1-2.43,1.1h-46.94c-.89,0-1.7.35-2.43,1.03-.73.69-1.09,1.52-1.09,2.49v6.43c0,.97.36,1.8,1.09,2.49.73.69,1.54,1.03,2.43,1.03h33.47c.89,0,1.7.34,2.43,1.03.73.69,1.09,1.52,1.09,2.49v6.43c0,.97-.36,1.8-1.09,2.49-.73.69-1.54,1.03-2.43,1.03h-46.94c-.89,0-1.7-.34-2.43-1.03ZM215.32,141.04c.89,0,1.7-.37,2.42-1.1.73-.73,1.09-1.55,1.09-2.45v-6.61c0-.9-.36-1.69-1.09-2.39-.73-.69-1.54-1.04-2.42-1.04h-20.01c-.89,0-1.7.35-2.43,1.04-.73.69-1.09,1.49-1.09,2.39v6.61c0,.9.36,1.71,1.09,2.45.73.74,1.54,1.1,2.43,1.1h20.01Z"/>
        <path class="cls-3" d="M287.32,180.39c-.73-.69-1.1-1.52-1.1-2.49v-19.89c0-.97-.35-1.8-1.04-2.49-.69-.69-1.53-1.03-2.5-1.03h-6.47c-.98,0-1.81-.36-2.5-1.1-.69-.73-1.04-1.54-1.04-2.44v-20.1c0-.89-.34-1.68-1.03-2.37-.69-.69-1.52-1.04-2.49-1.04h-6.43c-.97,0-1.8-.36-2.49-1.08-.69-.72-1.03-1.52-1.03-2.4v-6.49c0-.88.34-1.68,1.03-2.4.69-.72,1.52-1.08,2.49-1.08h33.35c.97,0,1.8.36,2.49,1.09.69.73,1.03,1.54,1.03,2.43v33.47c0,.89.37,1.7,1.11,2.43.74.73,1.56,1.09,2.47,1.09h6.67c.9,0,1.71-.36,2.41-1.09.7-.73,1.05-1.54,1.05-2.43v-33.47c0-.89.36-1.7,1.09-2.43s1.53-1.09,2.42-1.09h19.92c.88,0,1.69.36,2.41,1.08.72.72,1.09,1.52,1.09,2.4v6.49c0,.88-.36,1.68-1.09,2.4-.72.72-1.53,1.08-2.41,1.08h-6.52c-.89,0-1.67.35-2.36,1.04-.68.69-1.03,1.48-1.03,2.37v20.1c0,.89-.36,1.71-1.09,2.44-.72.73-1.53,1.1-2.42,1.1h-6.52c-.89,0-1.69.35-2.42,1.03-.72.69-1.09,1.52-1.09,2.49v19.89c0,.97-.35,1.8-1.04,2.49-.69.69-1.48,1.03-2.38,1.03h-20.13c-.89,0-1.71-.34-2.44-1.03Z"/>
        <path class="cls-3" d="M368.13,180.39c-.73-.69-1.09-1.52-1.09-2.49v-6.43c0-.97-.34-1.8-1.03-2.49-.69-.69-1.52-1.03-2.49-1.03h-6.43c-.97,0-1.8-.34-2.49-1.03-.69-.69-1.03-1.52-1.03-2.5v-33.57c0-.89.34-1.68,1.03-2.37.69-.69,1.52-1.03,2.49-1.03h6.43c.97,0,1.8-.36,2.49-1.08.69-.72,1.03-1.52,1.03-2.4v-6.49c0-.88.36-1.68,1.09-2.4.73-.72,1.54-1.08,2.43-1.08h46.94c.89,0,1.7.36,2.43,1.08.73.72,1.09,1.52,1.09,2.4v6.49c0,.88.34,1.68,1.03,2.4.69.72,1.52,1.08,2.49,1.08h6.43c.89,0,1.7.35,2.43,1.04s1.09,1.48,1.09,2.37v20.1c0,.89-.36,1.71-1.09,2.44s-1.54,1.1-2.43,1.1h-46.94c-.89,0-1.7.35-2.43,1.03-.73.69-1.09,1.52-1.09,2.49v6.43c0,.97.36,1.8,1.09,2.49.73.69,1.54,1.03,2.43,1.03h33.47c.89,0,1.7.34,2.43,1.03.73.69,1.09,1.52,1.09,2.49v6.43c0,.97-.36,1.8-1.09,2.49-.73.69-1.54,1.03-2.43,1.03h-46.94c-.89,0-1.7-.34-2.43-1.03ZM404.03,141.04c.89,0,1.7-.37,2.42-1.1.73-.73,1.09-1.55,1.09-2.45v-6.61c0-.9-.36-1.69-1.09-2.39-.73-.69-1.54-1.04-2.42-1.04h-20.01c-.89,0-1.7.35-2.43,1.04-.73.69-1.09,1.49-1.09,2.39v6.61c0,.9.36,1.71,1.09,2.45.73.74,1.54,1.1,2.43,1.1h20.01Z"/>
        <path class="cls-3" d="M462.42,180.39c-.69-.69-1.03-1.52-1.03-2.49v-87.32c0-.89.34-1.7,1.03-2.43.69-.73,1.52-1.09,2.49-1.09h19.89c.97,0,1.8.36,2.49,1.09.69.73,1.03,1.54,1.03,2.43v87.32c0,.97-.35,1.8-1.03,2.49-.69.69-1.52,1.03-2.49,1.03h-19.89c-.97,0-1.8-.34-2.49-1.03Z"/>
      </g>
      <g>
        <path class="cls-3" d="M58.14,92.05c-.69-.69-1.03-1.52-1.03-2.49V15.7c0-.89.34-1.7,1.03-2.43.69-.73,1.51-1.09,2.48-1.09h33.4c.89,0,1.67.36,2.36,1.09.69.72,1.03,1.53,1.03,2.41v19.92c0,.89.36,1.69,1.09,2.42.73.72,1.53,1.09,2.42,1.09h6.53c.89,0,1.69.35,2.42,1.04s1.09,1.48,1.09,2.37v20.1c0,.89.35,1.71,1.04,2.44.69.73,1.49,1.1,2.39,1.1h6.61c.9,0,1.71-.36,2.45-1.09.73-.73,1.1-1.54,1.1-2.43V15.7c0-.89.34-1.7,1.03-2.43.69-.73,1.52-1.09,2.49-1.09h6.43c.89,0,1.7.36,2.43,1.09.73.73,1.09,1.54,1.09,2.43v73.86c0,.97-.36,1.8-1.09,2.49-.73.69-1.54,1.03-2.43,1.03h-33.47c-.89,0-1.7-.34-2.42-1.03-.73-.69-1.09-1.52-1.09-2.49v-19.89c0-.97-.34-1.8-1.03-2.49-.69-.69-1.48-1.03-2.37-1.03h-6.55c-.89,0-1.7-.36-2.43-1.1s-1.09-1.54-1.09-2.44v-20.1c0-.89-.35-1.68-1.03-2.37-.69-.69-1.52-1.04-2.49-1.04h-6.43c-.89,0-1.7.34-2.43,1.03-.73.69-1.09,1.48-1.09,2.37v47.04c0,.97-.34,1.8-1.03,2.49-.69.69-1.52,1.03-2.49,1.03h-6.43c-.97,0-1.8-.34-2.49-1.03Z"/>
        <path class="cls-3" d="M179.48,92.05c-.73-.69-1.09-1.52-1.09-2.49v-6.43c0-.97-.34-1.8-1.03-2.49-.69-.69-1.52-1.03-2.49-1.03h-6.43c-.97,0-1.8-.34-2.49-1.03-.69-.69-1.03-1.52-1.03-2.5v-33.57c0-.89.34-1.68,1.03-2.37.69-.69,1.52-1.03,2.49-1.03h6.43c.97,0,1.8-.36,2.49-1.08.69-.72,1.03-1.52,1.03-2.4v-6.49c0-.88.36-1.68,1.09-2.4.73-.72,1.54-1.08,2.43-1.08h46.94c.89,0,1.7.36,2.43,1.08.73.72,1.09,1.52,1.09,2.4v6.49c0,.88.34,1.68,1.03,2.4.69.72,1.52,1.08,2.49,1.08h6.43c.89,0,1.7.35,2.43,1.04s1.09,1.48,1.09,2.37v20.1c0,.89-.36,1.71-1.09,2.44s-1.54,1.1-2.43,1.1h-46.94c-.89,0-1.7.35-2.43,1.03-.73.69-1.09,1.52-1.09,2.49v6.43c0,.97.36,1.8,1.09,2.49.73.69,1.54,1.03,2.43,1.03h33.47c.89,0,1.7.34,2.43,1.03.73.69,1.09,1.52,1.09,2.49v6.43c0,.97-.36,1.8-1.09,2.49-.73.69-1.54,1.03-2.43,1.03h-46.94c-.89,0-1.7-.34-2.43-1.03ZM215.37,52.69c.89,0,1.7-.37,2.42-1.1.73-.73,1.09-1.55,1.09-2.45v-6.61c0-.9-.36-1.69-1.09-2.39-.73-.69-1.54-1.04-2.42-1.04h-20.01c-.89,0-1.7.35-2.43,1.04-.73.69-1.09,1.49-1.09,2.39v6.61c0,.9.36,1.71,1.09,2.45.73.74,1.54,1.1,2.43,1.1h20.01Z"/>
        <path class="cls-3" d="M273.77,92.05c-.69-.69-1.03-1.52-1.03-2.49v-6.43c0-.97.34-1.8,1.03-2.49.69-.69,1.52-1.03,2.49-1.03h6.43c.97,0,1.8-.34,2.49-1.03.69-.69,1.03-1.52,1.03-2.5v-6.45c0-.97.36-1.8,1.09-2.49.73-.69,1.54-1.03,2.43-1.03h6.43c.97,0,1.8-.36,2.49-1.1.69-.73,1.03-1.54,1.03-2.43v-6.45c0-.97-.35-1.8-1.03-2.49-.69-.69-1.52-1.03-2.49-1.03h-6.43c-.89,0-1.7-.36-2.43-1.09-.73-.73-1.09-1.54-1.09-2.43v-6.57c0-.89-.34-1.68-1.03-2.37-.69-.69-1.52-1.03-2.49-1.03h-6.43c-.97,0-1.8-.36-2.49-1.08-.69-.72-1.03-1.52-1.03-2.4v-6.49c0-.88.34-1.68,1.03-2.4.69-.72,1.52-1.08,2.49-1.08h33.47c.89,0,1.68.36,2.37,1.09.69.73,1.03,1.54,1.03,2.43v20.01c0,.89.36,1.7,1.09,2.43.73.73,1.53,1.09,2.42,1.09h6.55c.89,0,1.7-.36,2.42-1.09.73-.73,1.09-1.53,1.09-2.43v-20.01c0-.89.34-1.7,1.03-2.43.69-.73,1.47-1.09,2.37-1.09h20.01c.89,0,1.7.36,2.43,1.08.73.72,1.09,1.52,1.09,2.4v6.49c0,.88-.36,1.68-1.09,2.4-.73.72-1.54,1.08-2.43,1.08h-6.43c-.97,0-1.8.34-2.49,1.03-.69.69-1.03,1.48-1.03,2.37v6.57c0,.89-.36,1.7-1.09,2.43-.73.73-1.54,1.09-2.43,1.09h-6.55c-.89,0-1.68.34-2.37,1.03-.69.69-1.03,1.52-1.03,2.49v6.45c0,.89.34,1.7,1.03,2.43.69.73,1.47,1.1,2.37,1.1h6.55c.89,0,1.7.34,2.43,1.03.73.69,1.09,1.52,1.09,2.49v6.45c0,.97.34,1.81,1.03,2.5.69.69,1.52,1.03,2.49,1.03h6.43c.89,0,1.7.34,2.43,1.03.73.69,1.09,1.52,1.09,2.49v6.43c0,.97-.36,1.8-1.09,2.49-.73.69-1.54,1.03-2.43,1.03h-33.47c-.89,0-1.7-.34-2.42-1.03-.73-.69-1.09-1.52-1.09-2.49v-19.89c0-.97-.34-1.8-1.03-2.49-.69-.69-1.48-1.03-2.37-1.03h-6.55c-.89,0-1.7.35-2.43,1.03-.73.69-1.09,1.52-1.09,2.49v19.89c0,.97-.35,1.8-1.03,2.49-.69.69-1.52,1.03-2.49,1.03h-19.89c-.97,0-1.8-.34-2.49-1.03Z"/>
        <path class="cls-3" d="M395.11,92.05c-.73-.69-1.09-1.52-1.09-2.49v-6.43c0-.97-.34-1.8-1.03-2.49-.69-.69-1.52-1.03-2.49-1.03h-6.43c-.97,0-1.8-.34-2.49-1.03-.69-.69-1.03-1.52-1.03-2.5v-33.57c0-.89-.34-1.68-1.03-2.37-.69-.69-1.52-1.03-2.49-1.03h-6.43c-.97,0-1.8-.36-2.49-1.08-.69-.72-1.03-1.52-1.03-2.4v-6.49c0-.88.34-1.68,1.03-2.4.69-.72,1.52-1.08,2.49-1.08h6.43c.97,0,1.8-.34,2.49-1.03.69-.69,1.03-1.47,1.03-2.36v-6.55c0-.89.34-1.7,1.03-2.43.69-.73,1.52-1.09,2.49-1.09h19.89c.97,0,1.8.36,2.49,1.09.69.73,1.03,1.54,1.03,2.43v6.55c0,.89.36,1.68,1.09,2.36.73.69,1.54,1.03,2.43,1.03h20.01c.89,0,1.7.36,2.42,1.08.73.72,1.09,1.52,1.09,2.4v6.49c0,.88-.36,1.68-1.09,2.4-.73.72-1.54,1.08-2.42,1.08h-20.01c-.89,0-1.7.34-2.43,1.03s-1.09,1.48-1.09,2.37v33.57c0,.97.36,1.81,1.09,2.5.73.69,1.54,1.03,2.43,1.03h20.01c.89,0,1.7.34,2.42,1.03.73.69,1.09,1.52,1.09,2.49v6.43c0,.97-.36,1.8-1.09,2.49-.73.69-1.54,1.03-2.42,1.03h-33.47c-.89,0-1.7-.34-2.43-1.03Z"/>
      </g>
      <g>
        <path class="cls-3" d="M54.4,247.76h8.76c11.27,0,17.07,5.97,17.07,14s-5.8,13.89-17.07,13.89h-1.39v11.16h-7.36v-39.05ZM63.16,269.4c6.75,0,9.71-2.73,9.71-7.64s-2.96-7.53-9.71-7.53h-1.39v15.17h1.39Z"/>
        <path class="cls-3" d="M83.19,270.63c0-10.04,8.2-16.57,16.79-16.57s16.85,6.53,16.85,16.57-8.2,16.57-16.85,16.57-16.79-6.53-16.79-16.57ZM99.98,280.56c5.75,0,9.54-4.35,9.54-9.93s-3.79-9.93-9.54-9.93-9.48,4.35-9.48,9.93,3.74,9.93,9.48,9.93Z"/>
        <path class="cls-3" d="M132.34,278.1c-.73.06-1.51.11-2.29.11h-.78v8.59h-6.81v-32.35h7.59c8.93,0,14.45,4.57,14.45,11.94,0,4.52-2.12,7.98-5.86,9.99l6.58,10.43h-7.47l-5.41-8.7ZM130.05,272.3c5.13,0,7.64-1.95,7.64-5.91s-2.46-5.86-7.64-5.86h-.78v11.77h.78Z"/>
        <path class="cls-3" d="M154.66,260.53h-6.25v-6.08h19.25v6.08h-6.19v26.27h-6.81v-26.27Z"/>
        <path class="cls-3" d="M172.73,254.45h13.56v5.8h-6.75v5.8h6.58v5.58h-6.58v15.17h-6.81v-32.35Z"/>
        <path class="cls-3" d="M191.64,270.63c0-10.04,8.2-16.57,16.79-16.57s16.85,6.53,16.85,16.57-8.2,16.57-16.85,16.57-16.79-6.53-16.79-16.57ZM208.43,280.56c5.75,0,9.54-4.35,9.54-9.93s-3.79-9.93-9.54-9.93-9.48,4.35-9.48,9.93,3.74,9.93,9.48,9.93Z"/>
        <path class="cls-3" d="M230.92,254.45h6.81v26.55h6.81v5.8h-13.61v-32.35Z"/>
        <path class="cls-3" d="M249.89,254.45h6.81v32.35h-6.81v-32.35Z"/>
        <path class="cls-3" d="M262.33,270.63c0-10.04,8.2-16.57,16.79-16.57s16.85,6.53,16.85,16.57-8.2,16.57-16.85,16.57-16.79-6.53-16.79-16.57ZM279.12,280.56c5.75,0,9.54-4.35,9.54-9.93s-3.79-9.93-9.54-9.93-9.48,4.35-9.48,9.93,3.74,9.93,9.48,9.93Z"/>
        <path class="cls-3" d="M313.65,284.74v-7.2c1.84,1.45,4.13,2.62,6.86,2.62,3.24,0,5.52-1.62,5.52-4.41,0-1.28-.45-3.07-2.73-5.02l-3.63-3.07c-2.96-2.51-5.75-6.08-5.75-10.65,0-5.75,4.52-9.65,11.49-9.65,1.9,0,3.85.28,5.24,1.23v6.81c-1.17-.78-2.62-1.34-4.57-1.34-2.73,0-4.8,1.17-4.8,3.51,0,1.12.39,2.79,2.68,4.69l3.18,2.73c3.51,2.96,6.64,6.3,6.64,11.32,0,6.75-5.52,10.88-12.27,10.88-3.29,0-6.19-.95-7.87-2.45Z"/>
        <path class="cls-3" d="M338.59,254.45h6.81v11.49h6.81v-11.49h6.86v32.35h-6.86v-15.28h-6.81v15.28h-6.81v-32.35Z"/>
        <path class="cls-3" d="M364.7,270.63c0-10.04,8.2-16.57,16.79-16.57s16.85,6.53,16.85,16.57-8.2,16.57-16.85,16.57-16.79-6.53-16.79-16.57ZM381.49,280.56c5.75,0,9.54-4.35,9.54-9.93s-3.79-9.93-9.54-9.93-9.48,4.35-9.48,9.93,3.74,9.93,9.48,9.93Z"/>
        <path class="cls-3" d="M418.26,275.48l-4.85,11.66h-.33l-13.67-32.69h7.14l4.74,11.94,1.95,5.36,1.62-4.41-5.41-12.89h7.14l1.67,4.18,1.62-4.18h7.14l-5.36,12.89,1.62,4.41,1.95-5.36,4.74-11.94h7.14l-13.67,32.69h-.33l-4.85-11.66Z"/>
      </g>
    </g>
  </g>
</svg>