<?xml version="1.0" encoding="UTF-8"?>
<svg id="Layer_2" xmlns="http://www.w3.org/2000/svg" viewBox="0 0 26.64 46.68">
  <g id="website_design">
    <path d="M20.52,46.17c-.36-.34-.54-.75-.54-1.23v-3.18c0-.48-.17-.89-.51-1.23s-.73-.51-1.17-.51h-3.24c-.44,0-.84-.17-1.2-.51-.36-.34-.54-.75-.54-1.23v-3.18c0-.48-.17-.89-.51-1.23-.34-.34-.75-.51-1.23-.51h-3.18c-.44,0-.84-.17-1.2-.51-.36-.34-.54-.75-.54-1.23v-3.18c0-.48-.17-.89-.51-1.23-.34-.34-.75-.51-1.23-.51H1.74c-.48,0-.89-.18-1.23-.54-.34-.36-.51-.76-.51-1.2v-3.18c0-.48.17-.89.51-1.23.34-.34.75-.51,1.23-.51h3.18c.48,0,.89-.18,1.23-.54s.51-.76.51-1.2v-3.24c0-.44.18-.83.54-1.17.36-.34.76-.51,1.2-.51h3.18c.48,0,.89-.18,1.23-.54.34-.36.51-.76.51-1.2v-3.24c0-.44.18-.84.54-1.2.36-.36.76-.54,1.2-.54h3.24c.44,0,.83-.17,1.17-.51.34-.34.51-.73.51-1.17V1.74c0-.44.18-.84.54-1.2.36-.36.75-.54,1.19-.54h3.21c.43,0,.83.18,1.19.54.36.36.54.76.54,1.2v3.24c0,.44-.18.83-.54,1.17-.36.34-.75.51-1.19.51h-3.21c-.44,0-.83.18-1.19.54-.36.36-.54.76-.54,1.2v3.24c0,.44-.17.84-.51,1.2-.34.36-.73.54-1.17.54h-3.24c-.44,0-.84.17-1.2.51-.36.34-.54.73-.54,1.17v3.24c0,.44-.17.84-.51,1.2s-.75.54-1.23.54h-3.18c-.44,0-.84.17-1.2.51-.36.34-.54.75-.54,1.23v3.18c0,.44.18.84.54,1.2.36.36.76.54,1.2.54h3.18c.48,0,.89.17,1.23.51.34.34.51.75.51,1.23v3.18c0,.48.18.89.54,1.23.36.34.76.51,1.2.51h3.24c.44,0,.83.17,1.17.51.34.34.51.75.51,1.23v3.18c0,.48.18.89.54,1.23.36.34.75.51,1.19.51h3.21c.43,0,.83.17,1.19.51.36.34.54.75.54,1.23v3.18c0,.48-.18.89-.54,1.23-.36.34-.75.51-1.19.51h-3.21c-.44,0-.83-.17-1.19-.51Z"/>
  </g>
</svg>